<?xml version="1.0" standalone="no"?>
<!DOCTYPE svg PUBLIC "-//W3C//DTD SVG 20010904//EN"
 "http://www.w3.org/TR/2001/REC-SVG-20010904/DTD/svg10.dtd">
<svg version="1.0" xmlns="http://www.w3.org/2000/svg"
 width="1162.000000pt" height="1600.000000pt" viewBox="0 0 1162.000000 1600.000000"
 preserveAspectRatio="xMidYMid meet">

<g transform="translate(0.000000,1600.000000) scale(0.100000,-0.100000)"
fill="#000000" stroke="none">
<path d="M5426 15969 c-21 -3 -49 -5 -64 -3 -14 1 -34 -1 -43 -6 -9 -6 -48
-13 -85 -16 -53 -5 -90 -17 -159 -51 -49 -25 -112 -53 -140 -63 -126 -46 -299
-139 -465 -251 -88 -59 -86 -58 -181 -108 -46 -24 -97 -55 -113 -68 -17 -14
-40 -29 -53 -34 -13 -5 -23 -13 -23 -17 0 -5 -17 -21 -37 -34 -106 -70 -203
-207 -242 -338 -44 -148 -93 -399 -102 -520 -8 -126 -4 -477 11 -870 6 -157
14 -235 28 -290 10 -41 25 -101 32 -133 7 -32 17 -60 22 -63 4 -3 8 -13 8 -23
0 -10 15 -52 34 -92 18 -41 45 -110 60 -154 15 -44 52 -143 82 -220 30 -77 67
-170 81 -207 30 -78 58 -111 74 -88 8 11 12 12 16 3 2 -7 11 -13 18 -13 18 0
24 -21 30 -104 6 -81 15 -99 92 -193 108 -134 145 -192 158 -253 4 -16 11 -30
15 -30 5 0 7 -7 3 -15 -3 -9 2 -57 11 -108 53 -308 52 -297 31 -622 -4 -55 -3
-64 5 -40 9 29 23 154 35 313 4 61 9 78 31 100 l26 27 -7 -25 c-4 -14 -11 -27
-15 -30 -5 -3 -8 -25 -8 -50 0 -25 -2 -65 -5 -90 -4 -25 -4 -39 -1 -32 11 25
22 11 14 -18 -5 -17 -5 -30 0 -30 5 0 3 -21 -5 -47 -8 -25 -12 -50 -9 -55 3
-4 -1 -8 -8 -8 -9 -1 -8 -4 3 -13 11 -8 14 -18 8 -32 -6 -17 -8 -17 -8 -2 -1
9 -5 17 -11 17 -13 0 -13 -43 1 -57 8 -8 6 -18 -5 -35 -10 -16 -15 -40 -13
-65 2 -28 0 -40 -8 -36 -8 3 -11 -12 -10 -47 1 -30 -3 -50 -9 -50 -6 0 -4 -5
4 -10 11 -7 11 -10 2 -10 -7 0 -10 -4 -7 -10 3 -5 1 -10 -4 -10 -14 0 -14 -37
0 -45 7 -5 6 -12 -4 -23 -12 -14 -25 -48 -31 -82 -1 -3 -5 -11 -9 -17 -5 -7
-5 -17 -2 -23 3 -5 -1 -10 -9 -10 -9 0 -16 -7 -16 -15 0 -25 -33 -85 -47 -85
-8 0 -12 -4 -8 -9 3 -6 -4 -15 -15 -21 -11 -6 -18 -15 -15 -21 4 -5 1 -9 -5
-9 -6 0 -9 -4 -6 -9 3 -5 -2 -8 -12 -7 -12 1 -17 -6 -17 -24 0 -15 -5 -24 -12
-23 -12 3 -17 -12 -16 -44 1 -7 -4 -10 -9 -7 -5 4 -8 15 -5 25 3 11 1 19 -4
19 -5 0 -9 -8 -9 -18 0 -11 -9 -27 -20 -37 -11 -10 -20 -15 -20 -11 0 4 -12
-5 -27 -18 -23 -21 -25 -28 -14 -38 8 -7 11 -8 8 -2 -3 6 1 11 10 11 11 0 2
-13 -25 -37 -32 -27 -39 -39 -31 -47 14 -14 -7 -13 -31 1 -12 7 -13 6 -2 -5 6
-7 12 -27 12 -45 0 -18 7 -38 17 -45 14 -12 16 -12 9 0 -6 9 -5 12 5 9 14 -5
38 18 39 37 0 7 -3 7 -8 0 -4 -5 -17 -16 -30 -23 -22 -12 -22 -12 -13 7 14 26
14 34 -1 25 -7 -4 -4 3 7 15 l20 23 17 -22 c18 -23 25 -66 9 -56 -5 3 -12 -1
-15 -9 -8 -21 -6 -31 5 -28 5 2 9 -2 9 -7 0 -6 4 -10 9 -10 4 0 8 8 7 18 0 9
3 18 8 20 13 3 17 -26 5 -34 -5 -3 -6 -10 -3 -16 4 -7 2 -8 -4 -4 -8 5 -10 1
-6 -9 4 -9 13 -14 20 -11 13 5 21 -11 30 -61 3 -15 9 -33 15 -39 5 -6 7 -19 3
-28 -10 -26 13 -44 51 -41 26 3 32 0 28 -11 -3 -8 1 -14 10 -14 9 0 23 -10 31
-21 14 -21 54 -20 41 0 -3 5 -1 12 5 16 5 3 11 1 11 -4 1 -6 3 -15 4 -21 1 -5
3 -14 4 -20 0 -5 10 -18 22 -29 11 -10 20 -27 19 -37 -4 -34 0 -41 26 -59 15
-9 24 -12 20 -7 -3 6 -2 13 3 17 5 3 8 14 6 25 -2 12 0 18 5 15 5 -3 7 -17 4
-31 -3 -19 -1 -24 8 -18 9 5 9 2 -1 -10 -12 -15 -12 -17 0 -14 9 2 14 -5 13
-19 -1 -13 2 -20 7 -17 4 2 6 -11 5 -31 -2 -19 0 -37 4 -40 9 -6 8 -24 -3 -42
-4 -6 -3 -14 3 -18 11 -7 12 -5 14 24 1 25 16 40 16 17 0 -10 5 -14 11 -10 13
7 -4 29 -24 29 -7 1 -10 7 -8 15 2 8 5 30 7 48 2 25 0 32 -10 29 -9 -4 -13 1
-12 11 5 31 33 25 38 -8 3 -17 2 -33 -2 -35 -13 -8 -5 -50 9 -47 7 1 10 -2 7
-7 -4 -5 -2 -12 4 -16 5 -3 10 -1 10 6 0 7 3 10 6 6 3 -3 -9 -24 -27 -46 -27
-35 -35 -39 -48 -28 -14 10 -14 10 -4 -4 7 -9 9 -20 5 -25 -4 -4 0 -3 9 4 9 6
19 8 23 4 4 -4 6 -2 4 3 -2 6 2 11 7 11 6 1 9 -1 8 -5 -1 -4 5 -8 13 -8 12 0
12 3 -1 17 -14 15 -13 19 7 36 13 12 18 13 13 4 -21 -34 -4 -64 37 -66 10 -1
20 -3 23 -4 3 -1 10 -3 16 -4 10 -1 40 -71 34 -78 -1 -2 6 -12 17 -23 18 -19
19 -19 12 -1 -5 13 -4 17 4 12 7 -4 10 1 7 15 -3 17 -2 19 10 9 11 -9 12 -17
5 -30 -7 -13 -7 -21 0 -25 6 -4 8 -10 6 -14 -3 -4 1 -8 9 -8 8 0 13 5 12 11
-1 6 4 10 11 8 8 -1 11 2 7 8 -3 6 -10 8 -15 5 -20 -12 -18 14 3 31 12 11 17
13 10 3 -10 -12 -9 -18 6 -31 17 -15 20 -15 36 1 10 9 15 11 11 4 -4 -7 2 -17
14 -23 11 -6 20 -15 20 -21 0 -6 -7 -3 -16 5 -14 14 -34 14 -34 0 0 -3 4 -3 9
0 12 8 33 -19 23 -30 -4 -4 0 -4 8 2 19 13 46 11 43 -3 -2 -7 6 -10 17 -8 13
2 20 -2 20 -11 0 -14 10 -18 45 -15 53 4 55 6 28 28 -10 8 -1 6 19 -6 22 -12
40 -16 43 -10 4 5 11 7 16 4 5 -4 12 1 15 10 6 13 8 14 15 3 5 -7 12 -14 16
-14 4 -1 19 -5 31 -9 18 -6 20 -10 10 -16 -10 -7 -9 -9 5 -9 12 0 16 -4 11
-12 -4 -7 -3 -9 2 -5 4 4 9 18 9 30 0 22 21 30 41 15 6 -4 20 -6 33 -3 12 2
19 0 16 -6 -4 -5 -10 -7 -15 -4 -5 3 -12 1 -15 -5 -4 -6 -3 -10 2 -9 4 1 10 0
13 -1 21 -8 38 -6 36 3 -2 7 -1 9 1 4 3 -4 9 -5 14 -2 5 4 6 0 3 -8 -3 -8 3
-20 13 -28 16 -12 17 -12 6 2 -10 13 -10 16 2 16 7 0 14 -3 13 -6 -2 -20 5
-29 24 -34 17 -5 19 -9 9 -21 -9 -11 -9 -16 0 -22 8 -4 9 -3 5 4 -4 7 -2 12 3
12 6 0 11 -5 11 -11 0 -5 5 -7 10 -4 6 3 10 -1 10 -10 0 -10 5 -13 13 -9 6 4
9 4 5 -1 -11 -12 11 -47 24 -39 7 5 9 2 6 -8 -4 -10 0 -14 16 -14 13 1 20 -4
18 -13 -3 -12 0 -12 12 -2 11 9 16 9 22 0 5 -8 2 -10 -7 -5 -8 4 -3 -1 10 -10
25 -19 64 -27 54 -11 -4 6 -1 7 8 1 8 -4 21 -9 29 -11 8 -1 20 -9 26 -17 13
-18 29 -22 18 -4 -4 6 -3 8 3 5 6 -4 10 -20 9 -36 -1 -19 2 -27 10 -24 7 2 22
-4 33 -14 11 -10 31 -27 45 -38 13 -10 22 -24 19 -29 -4 -5 -1 -6 7 -1 7 4 16
2 21 -6 7 -12 9 -11 9 1 0 13 1 13 10 0 8 -13 10 -12 10 4 0 12 5 16 16 12 9
-3 18 -6 20 -6 3 0 3 -4 0 -8 -3 -5 2 -9 10 -9 9 0 13 6 9 15 -4 12 -3 12 9 3
12 -10 14 -8 9 11 -4 18 -3 20 6 8 6 -8 11 -10 12 -5 0 6 2 17 4 26 1 9 -3 16
-11 16 -7 0 -11 -4 -8 -9 3 -4 -2 -5 -11 -2 -20 8 -15 26 12 39 11 6 18 17 16
25 -3 10 0 9 7 -3 6 -9 15 -15 21 -12 5 4 9 0 9 -8 0 -14 35 -17 45 -4 3 4 2
5 -1 2 -4 -2 -16 1 -28 7 -11 7 -25 11 -30 10 -5 -2 -4 4 4 12 14 18 25 22 15
6 -10 -16 1 -11 16 7 10 11 10 14 2 9 -16 -9 -16 -1 -2 25 5 11 14 17 20 14 5
-4 9 -1 9 4 0 16 38 51 56 51 8 0 13 4 10 9 -4 5 0 12 6 14 7 3 3 6 -8 6 -23
1 -56 31 -35 31 7 0 10 4 6 9 -6 10 11 24 32 27 6 1 14 -3 16 -10 5 -12 67
-16 67 -3 0 4 0 12 0 19 0 6 -6 4 -13 -7 -11 -14 -16 -15 -22 -5 -5 9 -4 11 3
6 7 -4 12 -1 12 9 0 9 -4 14 -9 11 -5 -4 -7 4 -4 16 4 19 3 20 -6 8 -6 -8 -11
-10 -11 -4 0 12 21 34 33 34 4 0 5 -10 2 -21 -8 -25 13 -43 32 -28 9 8 11 6 8
-11 -2 -11 0 -31 5 -43 5 -12 9 -16 9 -8 1 22 25 -3 41 -44 11 -28 19 -35 33
-31 13 3 21 -2 24 -15 4 -14 8 -17 13 -9 5 8 9 7 13 -5 4 -9 3 -14 -2 -10 -12
7 -43 -24 -35 -36 3 -5 11 -6 17 -2 7 4 6 -1 -2 -10 -8 -10 -11 -20 -7 -24 3
-3 6 -1 6 6 0 8 6 11 16 7 8 -3 13 -2 10 3 -7 11 59 12 88 1 20 -7 23 -6 21 8
-2 9 -4 24 -5 32 0 10 -6 6 -16 -10 -15 -25 -15 -25 -8 -1 5 18 3 22 -7 15
-12 -7 -12 -5 0 9 7 9 18 14 25 10 20 -13 35 -11 48 5 11 13 11 15 -2 8 -8 -4
-6 0 5 9 11 9 19 20 18 24 -1 3 11 6 25 5 15 -1 34 -3 42 -3 13 -1 13 -2 0
-11 -12 -7 -10 -9 7 -7 12 0 19 6 17 12 -3 5 2 1 12 -10 13 -16 16 -17 11 -3
-8 24 8 31 24 11 8 -9 9 -14 2 -10 -7 5 -9 0 -6 -13 3 -11 9 -23 14 -26 5 -3
6 3 3 13 -3 10 1 7 9 -6 9 -15 17 -20 21 -12 4 6 4 16 1 21 -3 5 -4 10 -1 10
3 0 13 -14 22 -31 8 -17 11 -28 5 -25 -7 5 -11 -2 -11 -15 0 -12 -11 -37 -26
-56 -14 -18 -22 -33 -19 -33 10 0 27 20 60 70 17 25 44 63 60 85 45 60 169
290 200 370 14 39 30 79 35 90 27 60 62 180 87 298 23 112 27 156 28 292 0
169 -13 239 -68 355 -35 76 -117 208 -133 214 -10 4 -14 21 -14 57 l0 51 33
-40 c17 -23 35 -41 39 -41 4 -1 19 -13 33 -27 14 -14 29 -24 32 -20 3 3 -20
29 -51 57 -71 64 -96 112 -96 179 0 64 9 82 76 148 46 45 173 122 202 122 10
0 110 44 227 100 33 15 101 40 150 55 123 37 155 56 228 128 49 48 67 74 81
117 34 105 33 211 -1 246 -19 19 -48 258 -34 282 6 10 11 -5 16 -46 4 -34 11
-60 16 -57 4 3 6 18 3 33 -3 15 0 50 6 77 6 28 13 66 15 85 2 19 13 91 25 160
30 177 32 421 6 508 -18 55 -22 61 -40 56 -16 -5 -12 3 16 35 40 43 81 120 98
180 15 57 -14 132 -77 200 -29 31 -53 51 -53 45 0 -5 14 -23 30 -39 17 -16 30
-37 30 -47 0 -13 4 -17 13 -12 9 6 9 5 0 -8 -7 -8 -9 -19 -5 -23 4 -5 0 -4 -8
1 -20 11 -60 13 -60 2 0 -5 -9 -4 -19 2 -24 12 -71 13 -71 1 0 -11 -39 -24
-64 -21 -11 1 -15 -3 -12 -9 5 -7 -4 -11 -23 -11 -18 0 -48 -13 -74 -30 -23
-17 -70 -38 -102 -47 -72 -19 -177 -24 -196 -9 -16 13 -25 76 -11 76 8 0 13
15 28 87 4 22 -17 26 -23 5 -6 -23 -60 -36 -80 -20 -7 6 -13 7 -14 2 -1 -5 -4
2 -8 16 -4 16 -14 25 -26 25 -11 0 -26 4 -34 9 -11 7 -13 5 -8 -10 7 -18 6
-18 -8 1 -9 11 -20 21 -25 21 -6 1 -13 2 -17 3 -3 0 2 10 12 21 11 12 20 26
21 33 2 7 5 22 8 35 3 12 1 20 -4 17 -14 -9 -24 43 -11 59 6 7 7 17 3 21 -4 5
-2 5 4 2 7 -4 23 2 37 13 14 11 32 20 40 20 8 0 17 9 20 20 3 11 13 20 22 20
21 0 70 48 79 78 4 12 11 22 16 22 4 0 10 9 13 21 5 17 12 20 41 18 20 -2 41
2 48 9 15 15 38 16 38 2 0 -5 4 -9 9 -7 5 1 62 -53 127 -119 115 -118 175
-166 161 -131 -3 9 1 21 9 28 10 8 11 15 4 24 -7 8 -3 25 10 53 11 23 23 42
27 42 4 0 17 -10 30 -22 l23 -21 0 22 c0 12 -7 24 -15 27 -20 8 -19 22 2 20
13 -1 21 21 38 109 13 61 28 123 34 138 6 16 11 50 11 76 0 43 -5 54 -40 92
-56 61 -70 78 -70 84 0 3 -8 13 -18 23 -10 10 -26 43 -36 73 -9 30 -23 68 -31
84 -45 102 -54 122 -59 145 -2 14 -12 49 -20 79 -9 30 -18 79 -21 109 -3 30
-10 63 -16 74 -6 11 -8 22 -5 25 5 6 46 -56 46 -70 0 -5 4 -5 10 -2 6 4 5 16
-4 33 -11 22 -11 29 -1 39 10 9 17 8 31 -8 9 -10 14 -22 11 -26 -4 -4 -14 2
-22 13 -13 17 -13 16 -3 -12 8 -22 16 -30 29 -27 20 6 87 -60 95 -94 3 -12 12
-24 20 -27 10 -4 8 5 -6 32 -11 20 -20 40 -20 45 0 18 22 -7 45 -54 14 -27 30
-49 36 -49 5 0 9 -8 7 -17 -2 -11 3 -18 12 -18 8 0 16 10 18 23 2 14 8 20 15
15 8 -4 7 -1 -1 9 -8 11 -9 17 -2 20 7 2 1 30 -14 76 -14 39 -21 72 -17 72 18
0 44 -42 48 -77 2 -21 9 -42 15 -48 7 -7 9 -1 4 20 -6 27 -5 28 6 10 22 -36
35 -119 28 -172 -3 -29 -3 -58 1 -65 13 -20 24 42 22 122 -1 41 -2 127 -2 192
0 64 -4 124 -9 135 -15 27 -41 140 -47 208 -4 33 -10 71 -15 85 -4 14 -16 52
-25 85 -20 72 -31 97 -66 150 -14 22 -42 65 -62 96 -29 47 -49 64 -109 97 -40
23 -88 52 -107 66 -19 14 -38 26 -43 26 -12 0 -279 131 -318 157 -83 53 -223
99 -495 163 -71 17 -173 47 -225 66 -52 20 -124 47 -160 60 -56 21 -105 31
-286 60 -34 5 -178 12 -409 19 -82 3 -189 6 -236 7 -47 2 -103 0 -123 -3z
m587 -103 c7 -18 -29 -35 -70 -34 -25 1 -33 6 -33 19 0 15 6 17 34 12 19 -3
36 -1 40 6 10 15 23 14 29 -3z m61 -2 c9 -24 7 -28 -9 -14 -17 14 -20 30 -6
30 5 0 12 -7 15 -16z m76 2 c0 -3 -4 -8 -10 -11 -5 -3 -10 -1 -10 4 0 6 5 11
10 11 6 0 10 -2 10 -4z m-1093 -28 c-3 -8 -6 -5 -6 6 -1 11 2 17 5 13 3 -3 4
-12 1 -19z m808 -48 c3 -5 1 -10 -4 -10 -6 0 -11 5 -11 10 0 6 2 10 4 10 3 0
8 -4 11 -10z m-638 -26 c-8 -8 -48 -13 -43 -6 2 4 14 8 26 9 12 1 20 0 17 -3z
m-183 -30 c3 -8 2 -12 -4 -9 -6 3 -10 10 -10 16 0 14 7 11 14 -7z m82 -11 c-3
-3 -13 -2 -23 2 -17 7 -17 8 2 15 19 7 34 -5 21 -17z m-186 -4 c0 -5 -7 -9
-15 -9 -9 0 -12 6 -9 15 6 15 24 11 24 -6z m-43 -19 c1 -17 -2 -30 -7 -30 -6
0 -10 14 -10 30 0 39 14 39 17 0z m131 -37 c7 -31 7 -40 -2 -37 -7 3 -13 23
-15 47 -3 50 5 46 17 -10z m76 8 c3 -4 -6 -8 -20 -9 -15 -1 -24 4 -24 12 0 14
35 11 44 -3z m1367 -34 c-8 -8 -11 -4 -11 14 0 33 14 47 18 19 2 -12 -1 -27
-7 -33z m-1721 -37 c0 -5 -2 -10 -4 -10 -3 0 -8 5 -11 10 -3 6 -1 10 4 10 6 0
11 -4 11 -10z m-213 -92 c-3 -7 -5 -2 -5 12 0 14 2 19 5 13 2 -7 2 -19 0 -25z
m-17 -49 c0 -6 -4 -7 -10 -4 -5 3 -10 11 -10 16 0 6 5 7 10 4 6 -3 10 -11 10
-16z m-100 -15 c0 -17 -22 -14 -28 4 -2 7 3 12 12 12 9 0 16 -7 16 -16z m80
-40 c0 -8 -4 -12 -10 -9 -5 3 -10 13 -10 21 0 8 5 12 10 9 6 -3 10 -13 10 -21z
m-20 -25 c0 -5 -4 -9 -10 -9 -5 0 -10 7 -10 16 0 8 5 12 10 9 6 -3 10 -10 10
-16z m-113 -25 c24 -9 43 -21 43 -25 0 -5 -2 -9 -4 -9 -10 0 -96 40 -96 45 0
8 12 6 57 -11z m-182 -104 c3 -5 -1 -10 -10 -10 -9 0 -13 5 -10 10 3 6 8 10
10 10 2 0 7 -4 10 -10z m-45 -68 c0 -5 -9 -17 -19 -26 -22 -20 -40 -4 -21 19
13 16 40 20 40 7z m20 -80 c0 -9 -6 -12 -16 -8 -9 3 -18 6 -20 6 -3 0 -3 4 0
8 9 14 36 10 36 -6z m-50 -42 c0 -5 -5 -10 -11 -10 -5 0 -7 5 -4 10 3 6 8 10
11 10 2 0 4 -4 4 -10z m-280 -401 c0 -5 -4 -8 -9 -5 -5 3 -12 -5 -15 -19 -4
-14 -11 -25 -16 -25 -14 0 -12 12 6 38 16 23 34 29 34 11z m4185 -69 c3 -5 1
-10 -4 -10 -6 0 -11 5 -11 10 0 6 2 10 4 10 3 0 8 -4 11 -10z m-4227 -20 c-14
-22 -24 -19 -15 5 4 8 11 15 17 15 6 0 6 -7 -2 -20z m28 -66 c-12 -30 -25 -13
-13 19 8 23 12 27 15 14 2 -10 1 -25 -2 -33z m-26 12 c0 -15 -18 -31 -26 -23
-7 7 7 37 17 37 5 0 9 -6 9 -14z m4228 -31 c-3 -3 -9 2 -12 12 -6 14 -5 15 5
6 7 -7 10 -15 7 -18z m-4179 -22 c-24 -40 -47 -62 -64 -63 -5 0 2 11 18 24 15
13 27 29 27 36 0 11 27 39 38 40 2 0 -7 -17 -19 -37z m33 -68 c-2 -14 -6 -25
-8 -25 -2 0 -4 11 -4 25 0 14 4 25 9 25 4 0 6 -11 3 -25z m-52 -25 c-6 -11
-13 -20 -16 -20 -2 0 0 9 6 20 6 11 13 20 16 20 2 0 0 -9 -6 -20z m4207 -12
c-3 -8 -6 -5 -6 6 -1 11 2 17 5 13 3 -3 4 -12 1 -19z m-1552 -178 c-3 -5 -1
-11 5 -15 5 -3 10 -17 10 -31 0 -14 -4 -23 -9 -19 -12 7 -43 -24 -35 -36 8
-13 -18 -7 -35 9 -10 10 -11 16 -3 24 13 13 -2 38 -21 38 -6 0 -3 -6 6 -12 31
-24 -17 -55 -62 -39 -2 0 3 9 10 19 13 15 12 16 -3 3 -10 -7 -15 -18 -11 -25
4 -7 1 -6 -9 1 -8 7 -18 10 -21 6 -4 -3 -8 0 -8 8 -2 28 3 52 14 63 13 13 37
15 37 4 0 -5 0 -12 0 -18 0 -5 -5 -10 -11 -10 -8 0 -7 6 2 18 13 15 12 16 -3
4 -9 -8 -14 -20 -11 -28 4 -10 9 -11 17 -4 9 6 17 6 26 -3 12 -10 12 -9 1 6
-12 15 -12 17 1 12 9 -4 22 1 31 9 16 17 32 22 23 8 -2 -4 -1 -14 5 -22 6 -11
9 -12 9 -2 0 7 4 10 10 7 5 -3 12 6 16 20 3 13 10 22 15 19 5 -3 7 -9 4 -14z
m45 -14 c0 -3 -4 -8 -10 -11 -5 -3 -10 -1 -10 4 0 6 5 11 10 11 6 0 10 -2 10
-4z m40 -31 c7 -8 16 -12 21 -9 5 3 9 0 9 -5 0 -6 -7 -11 -15 -11 -8 0 -15 6
-15 13 0 7 -3 8 -8 2 -11 -16 -53 -37 -60 -30 -4 3 0 10 7 14 7 5 11 13 7 19
-6 10 8 20 30 21 6 1 17 -6 24 -14z m-204 -54 c19 16 18 4 -2 -15 -12 -13 -18
-13 -28 -3 -10 9 -11 14 -2 19 6 4 13 3 14 -3 3 -6 9 -6 18 2z m48 1 c3 -5 -1
-9 -9 -9 -8 0 -12 4 -9 9 3 4 7 8 9 8 2 0 6 -4 9 -8z m19 -47 c-21 -16 -26
-14 -17 8 3 9 12 13 20 10 12 -4 11 -8 -3 -18z m-2648 -115 c-3 -5 -7 -50 -9
-100 -4 -114 -16 -131 -16 -22 0 74 11 132 25 132 4 0 3 -4 0 -10z m92 -142
c-3 -8 -6 -5 -6 6 -1 11 2 17 5 13 3 -3 4 -12 1 -19z m-65 -117 c0 -31 4 -48
10 -45 6 4 8 -5 3 -25 -4 -21 -3 -31 5 -31 8 0 11 -11 8 -30 -3 -16 -1 -30 3
-30 4 0 5 -9 2 -20 -3 -12 0 -20 7 -20 7 0 10 -6 7 -14 -3 -8 -2 -16 3 -18 5
-2 5 -33 -1 -77 -6 -40 -8 -76 -5 -79 3 -3 6 4 6 16 0 12 4 22 10 22 8 0 6
-41 -5 -77 -2 -7 0 -15 5 -18 6 -4 10 -1 10 4 0 6 5 11 11 11 7 0 17 7 23 15
8 12 10 -1 9 -52 -3 -67 14 -153 29 -153 4 0 8 -5 8 -12 0 -6 -9 -3 -20 7 -11
10 -20 29 -20 42 0 14 -4 21 -10 18 -5 -3 -10 0 -10 7 0 10 -3 9 -10 -2 -8
-12 -10 -12 -16 3 -5 14 -9 15 -20 6 -22 -18 -28 -4 -30 64 -2 72 -13 127 -25
127 -5 0 -9 7 -9 16 0 8 -5 25 -11 37 -13 24 -18 84 -11 139 3 25 10 38 23 41
11 3 19 13 18 24 0 10 -3 13 -6 5 -2 -6 -9 -10 -14 -6 -5 3 -9 -1 -10 -8 0 -7
-5 0 -9 15 -5 17 -5 39 1 54 6 16 5 31 -1 44 -8 15 -7 25 7 43 24 32 35 19 35
-43z m728 -189 c0 -5 7 -9 15 -10 8 -1 21 -3 29 -4 8 -1 17 -10 19 -20 7 -24
-23 -24 -55 1 -16 13 -29 17 -39 11 -9 -6 -22 -4 -36 6 -21 13 -27 11 -24 -8
0 -4 -6 -5 -14 -2 -46 18 -121 -45 -163 -134 -24 -51 -27 -69 -27 -164 0 -60
-3 -108 -7 -108 -8 0 -11 47 -10 152 2 130 77 247 178 278 38 11 134 12 134 2z
m120 -52 c0 -5 -5 -10 -11 -10 -5 0 -7 5 -4 10 3 6 8 10 11 10 2 0 4 -4 4 -10z
m1418 -12 c-2 -7 2 -12 9 -11 7 2 18 -7 24 -19 11 -21 12 -21 27 -2 14 18 14
18 9 -2 -5 -22 6 -26 31 -11 7 5 12 3 12 -5 0 -8 3 -9 8 -3 6 9 26 12 35 5 9
-7 36 -6 31 1 -3 5 -10 6 -16 3 -7 -4 -8 -2 -4 5 6 8 12 9 20 2 7 -6 16 -7 21
-3 4 4 2 -4 -5 -17 l-12 -23 25 18 c14 11 23 22 20 27 -2 4 -2 7 1 7 11 0 35
-58 28 -66 -4 -5 2 -2 12 6 11 8 22 15 25 15 3 0 5 5 3 10 -2 6 2 4 10 -3 10
-10 10 -15 1 -20 -9 -6 -5 -18 16 -42 22 -28 27 -40 20 -58 -6 -15 -13 -21
-21 -16 -10 5 -10 4 -1 -6 7 -8 20 -15 29 -16 9 -1 13 0 10 4 -4 3 3 11 16 18
18 9 25 9 37 -4 8 -8 16 -21 17 -29 2 -8 5 -18 9 -21 3 -4 4 5 2 19 -4 18 -1
26 9 26 9 0 13 -6 9 -15 -4 -12 -3 -13 10 -2 14 12 19 7 16 -13 -1 -5 3 -6 8
-2 6 3 8 12 5 19 -3 9 3 12 23 10 15 -1 30 -3 33 -4 3 -1 9 -2 13 -1 5 1 6 -3
2 -9 -3 -6 -12 -7 -18 -3 -18 11 -38 12 -31 2 3 -5 9 -7 14 -4 5 3 11 1 14 -4
3 -5 15 -7 26 -4 11 3 17 10 13 16 -4 6 -1 7 8 1 8 -5 26 -9 42 -10 15 -1 29
-3 32 -4 3 -1 50 -4 105 -5 55 -1 102 -4 105 -5 11 -6 31 -6 40 -1 14 8 48 8
60 1 15 -9 40 -6 38 6 -1 5 18 10 42 10 24 0 42 -2 40 -5 -8 -7 17 -31 26 -25
5 3 6 -3 2 -13 -6 -16 -5 -16 10 -4 9 7 14 17 11 22 -3 5 -3 9 0 9 17 0 12
-21 -11 -41 -14 -13 -23 -18 -18 -10 6 10 4 12 -5 6 -8 -5 -11 -4 -7 1 3 6 1
16 -5 24 -8 12 -9 12 -4 -3 3 -10 2 -15 -3 -12 -5 3 -12 1 -16 -5 -9 -14 -25
-2 -19 14 3 7 -2 13 -11 13 -10 0 -13 -6 -10 -17 3 -11 0 -17 -10 -17 -11 0
-14 7 -10 21 5 19 5 19 -8 -2 -7 -12 -16 -20 -20 -16 -4 4 -2 12 3 19 7 8 5
12 -4 12 -12 0 -14 -16 -6 -37 1 -3 2 -9 1 -14 -1 -5 5 -4 13 4 13 10 16 10
17 -1 0 -11 2 -11 6 -1 4 10 10 9 26 -5 19 -16 20 -16 8 0 -16 21 1 23 19 2 7
-9 17 -12 24 -7 18 14 40 8 44 -10 2 -12 -3 -18 -15 -18 -15 0 -16 -2 -3 -10
13 -8 13 -11 1 -22 -12 -11 -13 -10 -6 2 6 11 5 12 -4 4 -7 -6 -13 -20 -14
-31 0 -11 -7 -20 -13 -20 -9 0 -10 5 -3 19 5 10 7 18 3 18 -3 0 0 8 7 18 11
14 11 15 -1 5 -16 -15 -21 -32 -24 -85 -2 -21 -6 -41 -11 -45 -4 -5 -5 -3 -1
4 3 6 2 15 -4 18 -8 5 -8 11 0 20 8 10 8 15 -1 21 -7 4 -9 3 -5 -4 3 -6 2 -13
-3 -16 -5 -4 -12 2 -14 11 -3 10 -4 6 -4 -9 1 -15 4 -26 7 -25 3 1 7 -2 8 -8
2 -5 9 -16 15 -24 10 -12 9 -13 -2 -6 -11 6 -13 4 -8 -9 4 -9 3 -15 -2 -12
-10 6 -34 -18 -26 -26 3 -2 -2 -5 -10 -5 -8 0 -12 4 -10 8 6 9 -21 20 -30 11
-4 -4 -15 -8 -26 -8 -29 -2 -31 -3 -24 -14 5 -8 12 -7 23 2 14 11 14 9 -1 -8
-9 -11 -14 -25 -10 -29 5 -5 0 -3 -9 4 -15 11 -18 11 -18 0 0 -8 -6 -5 -15 7
-13 18 -14 18 -9 -6 5 -20 3 -22 -5 -10 -9 13 -15 8 -13 -11 1 -8 -45 -5 -54
4 -4 3 3 5 15 2 24 -5 49 29 29 41 -6 4 -8 3 -4 -4 3 -6 2 -13 -4 -17 -5 -3
-10 0 -10 8 0 10 -10 14 -29 13 -26 -1 -27 -3 -18 -23 12 -26 1 -45 -13 -23
-9 13 -10 13 -11 0 0 -10 -3 -9 -8 4 -7 19 -8 19 -13 -1 -5 -17 -2 -21 13 -18
20 4 35 -10 20 -19 -5 -4 -12 -2 -16 4 -4 6 -11 8 -16 4 -5 -3 -21 1 -34 10
-13 9 -28 16 -32 16 -4 0 -2 -4 6 -9 21 -13 2 -33 -25 -27 -19 5 -22 3 -17
-11 4 -10 2 -14 -4 -10 -6 4 -14 1 -16 -5 -3 -8 -6 -6 -6 5 -1 10 -6 15 -11
12 -6 -4 -8 -11 -4 -16 3 -6 -5 -8 -20 -5 -14 3 -26 0 -26 -5 0 -6 -6 -7 -12
-3 -10 6 -10 5 -1 -8 7 -8 9 -19 5 -23 -4 -5 -1 -5 6 -1 7 4 9 12 6 18 -5 7
-2 8 5 3 17 -10 -8 -35 -38 -38 -14 -1 -20 -6 -16 -16 4 -11 3 -11 -9 -2 -11
9 -15 9 -19 -1 -3 -7 -6 -3 -6 9 -1 29 -11 53 -23 53 -5 0 -7 -4 -4 -8 3 -5
-1 -9 -8 -9 -8 0 -11 8 -8 19 2 10 9 15 16 12 6 -3 0 4 -14 15 -14 12 -19 20
-10 19 8 -2 18 -7 22 -12 8 -11 38 11 38 28 0 6 -5 4 -10 -4 -7 -12 -12 -12
-22 -2 -9 9 -9 12 2 12 11 0 11 3 2 12 -15 15 -54 -29 -48 -54 3 -14 0 -16
-14 -8 -9 5 -21 6 -25 2 -4 -4 -3 3 3 14 9 17 8 24 -2 33 -7 6 -16 7 -21 3 -4
-4 -5 4 -1 18 6 25 6 25 -5 3 -7 -13 -16 -23 -21 -23 -5 0 -7 4 -4 9 6 10 -19
9 -29 -1 -9 -9 -45 3 -39 13 3 5 -3 10 -13 10 -10 1 -25 2 -33 3 -9 0 -16 13
-18 29 -2 15 -6 25 -10 23 -4 -2 -7 10 -6 28 2 37 -15 65 -44 71 -16 3 -20 0
-15 -13 3 -9 -15 4 -40 29 -36 37 -46 42 -54 30 -6 -10 -10 -1 -11 32 -2 25 1
48 7 51 5 3 8 -2 7 -11 -2 -10 -1 -12 1 -5 3 7 8 10 12 8 4 -3 7 3 7 12 1 9 5
26 9 37 8 17 7 18 -7 5 -9 -8 -13 -19 -10 -25 3 -5 -2 -4 -11 4 -15 12 -17 11
-17 -3 0 -10 -5 -14 -10 -11 -6 4 -8 11 -4 16 8 14 -40 6 -58 -9 -11 -9 -19
-9 -33 2 -15 11 -16 13 -1 13 9 0 16 -5 16 -10 0 -5 6 -4 14 2 14 12 11 57 -5
67 -5 3 -6 -3 -3 -13 5 -15 4 -16 -5 -3 -6 8 -11 24 -11 34 0 18 1 18 19 2 18
-16 19 -16 17 1 -1 13 6 18 25 18 19 -1 25 3 21 14 -4 10 -1 12 9 6 11 -6 12
-5 2 6 -7 7 -13 18 -13 24 0 5 5 3 10 -5 8 -12 10 -9 10 13 0 16 4 26 8 23 5
-3 9 1 9 9 0 8 -5 11 -11 7 -25 -15 -54 -8 -65 15 -7 16 -7 23 0 23 6 0 8 4 4
9 -3 5 4 12 15 16 11 3 19 9 19 13 -2 12 1 22 6 22 3 0 4 -6 3 -12z m96 -33
c-4 -8 -8 -15 -10 -15 -2 0 -4 7 -4 15 0 8 4 15 10 15 5 0 7 -7 4 -15z m-167
-30 c0 -8 -4 -12 -9 -9 -5 3 -6 10 -3 15 9 13 12 11 12 -6z m-2110 -47 c-3 -8
-6 -5 -6 6 -1 11 2 17 5 13 3 -3 4 -12 1 -19z m2144 -19 c-9 -4 -20 -4 -26 -1
-5 3 -4 -1 2 -10 7 -8 10 -18 6 -22 -4 -4 1 -4 12 0 21 8 21 6 -8 -16 -10 -7
-17 -9 -16 -4 4 22 -2 45 -10 39 -5 -3 -3 9 6 25 15 30 16 31 33 13 15 -16 15
-19 1 -24z m409 -63 c0 -2 -8 -10 -17 -17 -16 -13 -17 -12 -4 4 13 16 21 21
21 13z m734 -117 c-3 -5 -10 -7 -15 -3 -5 3 -7 10 -3 15 3 5 10 7 15 3 5 -3 7
-10 3 -15z m-3199 -180 c10 -30 0 -33 -13 -4 -6 14 -7 25 -2 25 5 0 12 -9 15
-21z m4090 -139 c-3 -5 -12 -10 -18 -10 -7 0 -6 4 3 10 19 12 23 12 15 0z
m-1631 -31 c-9 -10 -22 -19 -28 -19 -6 0 0 7 12 16 12 8 19 20 16 26 -5 7 -2
8 5 4 9 -6 8 -13 -5 -27z m-1829 -49 c3 -5 1 -10 -4 -10 -6 0 -11 5 -11 10 0
6 2 10 4 10 3 0 8 -4 11 -10z m2075 -5 c-5 -7 -9 -14 -7 -16 1 -2 0 -3 -2 -1
-11 7 -7 29 5 29 9 0 11 -4 4 -12z m-2270 -16 c0 -6 -4 -7 -10 -4 -5 3 -10 11
-10 16 0 6 5 7 10 4 6 -3 10 -11 10 -16z m235 -9 c3 -5 1 -10 -4 -10 -6 0 -11
5 -11 10 0 6 2 10 4 10 3 0 8 -4 11 -10z m-201 -56 c3 -8 2 -12 -4 -9 -6 3
-10 10 -10 16 0 14 7 11 14 -7z m325 -20 c1 -1 0 -7 -3 -13 -8 -12 -46 7 -46
22 0 7 38 0 49 -9z m114 -8 c36 -15 83 -61 70 -69 -4 -3 -25 -4 -45 -3 -27 2
-45 12 -67 34 -16 18 -37 32 -48 32 -15 0 -16 2 -3 10 21 14 55 12 93 -4z
m-358 -77 c11 -17 -1 -21 -15 -4 -8 9 -8 15 -2 15 6 0 14 -5 17 -11z m43 -75
c-4 -3 -12 5 -18 18 -12 22 -12 22 6 6 10 -10 15 -20 12 -24z m199 1 c0 -8 -4
-12 -9 -9 -4 3 -8 9 -8 15 0 5 4 9 8 9 5 0 9 -7 9 -15z m-132 -75 c10 -11 16
-20 13 -20 -3 0 -13 9 -23 20 -10 11 -16 20 -13 20 3 0 13 -9 23 -20z m370
-60 c-3 -5 -1 -12 5 -15 6 -4 10 -3 9 2 -4 20 2 31 16 29 25 -4 28 -14 11 -38
-9 -12 -16 -19 -16 -14 0 5 -6 3 -14 -3 -11 -10 -17 -7 -29 10 -18 24 -12 50
9 42 8 -3 12 -9 9 -13z m-271 -22 c13 -18 23 -36 20 -40 -5 -7 -64 53 -64 66
0 15 21 3 44 -26z m3226 -176 c0 -13 -3 -12 -15 4 -19 25 -19 40 0 24 8 -7 15
-20 15 -28z m21 -195 c-8 -8 -11 -1 -11 24 0 46 14 60 18 19 2 -18 -1 -37 -7
-43z m-51 -268 c0 -14 -17 -10 -23 5 -4 10 -1 13 9 9 7 -3 14 -9 14 -14z
m-3342 -248 c0 -18 -5 -32 -15 -35 -12 -5 -14 -1 -9 16 3 13 6 29 6 36 0 26
17 10 18 -17z m37 -141 c-3 -5 -12 -10 -18 -10 -7 0 -6 4 3 10 19 12 23 12 15
0z m2466 -873 c15 -23 39 -67 54 -97 25 -50 25 -53 6 -36 -11 11 -21 15 -21
10 0 -24 -60 62 -65 94 -4 20 -9 45 -12 55 -8 30 11 18 38 -26z m-2774 -602
c0 -8 -4 -12 -9 -9 -5 3 -6 10 -3 15 9 13 12 11 12 -6z m53 -8 c0 -7 -4 -6
-10 3 -7 11 -10 11 -10 2 0 -7 -5 -10 -11 -6 -8 4 -7 9 2 15 15 9 29 3 29 -14z
m-15 -26 c-3 -2 2 -14 10 -27 13 -19 12 -23 -1 -28 -9 -4 -18 2 -24 17 -5 12
-9 16 -9 10 -1 -15 -31 -18 -31 -4 0 5 7 12 16 15 8 3 13 10 9 15 -3 6 3 9 14
8 11 -1 18 -3 16 -6z m141 -135 c0 -14 -4 -22 -8 -20 -4 3 -8 14 -8 25 0 10 4
19 8 19 4 0 8 -11 8 -24z m224 -191 c-5 -7 -9 -14 -7 -16 1 -2 0 -3 -2 -1 -11
7 -7 29 5 29 9 0 11 -4 4 -12z m-30 -34 c8 -15 7 -19 -5 -17 -8 1 -21 8 -28
16 -9 11 -8 11 7 0 18 -14 19 -13 13 3 -9 23 0 22 13 -2z m302 -258 c-1 -14
30 -43 39 -37 5 3 9 -3 9 -12 0 -16 -1 -16 -18 -1 -10 10 -22 14 -26 10 -4 -5
-7 -3 -6 2 1 6 1 12 0 15 -5 14 -8 41 -3 37 2 -3 5 -9 5 -14z m103 -51 c-3 -3
0 -11 6 -18 7 -9 6 -14 -3 -20 -7 -4 -10 -3 -5 1 4 5 0 16 -8 25 -13 15 -13
17 0 17 8 0 13 -3 10 -5z m1056 -165 c-10 -9 -11 -8 -5 6 3 10 9 15 12 12 3
-3 0 -11 -7 -18z m555 -25 c1 -7 0 -8 -3 -2 -2 5 -9 8 -14 4 -5 -3 -9 0 -9 6
0 15 23 7 26 -8z m-902 -87 c3 -8 1 -15 -4 -15 -6 0 -10 7 -10 15 0 8 2 15 4
15 2 0 6 -7 10 -15z m730 -11 c3 -8 2 -12 -4 -9 -6 3 -10 10 -10 16 0 14 7 11
14 -7z m-33 -17 c-10 -9 -11 -8 -5 6 3 10 9 15 12 12 3 -3 0 -11 -7 -18z"/>
<path d="M6065 13372 c4 -10 0 -12 -12 -8 -15 6 -15 4 2 -12 12 -12 24 -16 31
-11 6 5 13 8 15 6 2 -1 -2 3 -9 10 -8 6 -12 16 -8 21 3 5 -2 9 -10 9 -9 0 -13
-6 -9 -15z"/>
<path d="M6350 13311 c0 -5 7 -12 16 -15 14 -5 15 -4 4 9 -14 17 -20 19 -20 6z"/>
<path d="M6386 13267 c3 -10 9 -15 12 -12 3 3 0 11 -7 18 -10 9 -11 8 -5 -6z"/>
<path d="M6357 13263 c-4 -3 -7 -15 -7 -26 0 -15 3 -17 13 -8 10 8 17 7 27 -2
7 -6 5 0 -5 16 -19 30 -19 30 -28 20z"/>
<path d="M6124 13209 c-3 -6 -2 -15 3 -20 5 -5 9 -1 9 11 0 23 -2 24 -12 9z"/>
<path d="M6055 13180 c-3 -6 1 -7 9 -4 18 7 21 14 7 14 -6 0 -13 -4 -16 -10z"/>
<path d="M6020 13161 c0 -11 4 -22 9 -25 4 -3 6 6 3 19 -5 30 -12 33 -12 6z"/>
<path d="M6065 13160 c-4 -6 -11 -7 -17 -4 -7 4 -8 2 -4 -5 4 -6 12 -9 17 -6
5 4 9 2 9 -4 0 -5 7 -8 15 -7 9 1 14 6 13 12 -1 5 -9 8 -16 6 -8 -2 -11 1 -7
7 3 6 4 11 1 11 -3 0 -8 -5 -11 -10z"/>
<path d="M6687 13148 c16 -17 17 -17 36 -1 20 17 20 17 14 0 -4 -11 -3 -16 4
-12 20 13 2 29 -34 30 -35 1 -36 0 -20 -17z m33 6 c0 -8 -19 -13 -24 -6 -3 5
1 9 9 9 8 0 15 -2 15 -3z"/>
<path d="M7105 13160 c-3 -4 5 -7 18 -6 16 1 22 -4 20 -18 -1 -20 14 -10 19
13 3 15 -49 25 -57 11z"/>
<path d="M6784 13143 c1 -7 6 -16 11 -20 4 -4 5 -3 1 4 -3 6 -2 14 4 18 10 6
15 -8 10 -30 -1 -5 4 -4 11 2 10 10 17 9 33 -5 14 -11 17 -12 9 -2 -8 10 -9
21 -3 30 6 8 10 13 11 10 0 -3 2 -13 4 -24 2 -10 9 -24 15 -30 8 -8 9 -6 4 8
-5 14 -4 17 5 12 6 -4 10 -4 9 1 -2 4 2 8 7 8 6 0 9 -4 7 -9 -2 -5 4 -4 12 4
9 7 16 9 16 5 0 -4 8 -1 17 6 15 12 16 12 11 -3 -5 -11 -2 -15 10 -14 9 2 18
8 20 15 3 9 8 9 20 -1 10 -7 14 -8 10 -4 -4 5 -3 15 2 21 7 9 4 12 -13 11 -12
-1 -26 -4 -32 -7 -9 -5 -32 -4 -37 1 -2 1 -42 3 -89 4 -64 1 -86 -2 -85 -11z
m126 2 c0 -2 -6 -8 -13 -14 -10 -8 -14 -7 -14 2 0 8 6 14 14 14 7 0 13 -1 13
-2z m46 -7 c3 -4 -1 -5 -10 -4 -8 1 -18 5 -22 8 -3 4 1 5 10 4 8 -1 18 -5 22
-8z m47 -3 c-3 -9 -8 -14 -10 -11 -3 3 -2 9 2 15 9 16 15 13 8 -4z"/>
<path d="M6405 13080 c3 -5 12 -7 20 -3 21 7 19 13 -6 13 -11 0 -18 -4 -14
-10z"/>
<path d="M6121 13029 c-1 -9 7 -23 17 -30 15 -12 16 -12 6 1 -6 8 -14 22 -17
30 -5 13 -6 12 -6 -1z"/>
<path d="M6357 12993 c-4 -3 -7 -11 -7 -17 0 -6 5 -5 12 2 6 6 9 14 7 17 -3 3
-9 2 -12 -2z"/>
<path d="M6556 12965 c-9 -26 -7 -32 5 -12 6 10 9 21 6 23 -2 3 -7 -2 -11 -11z"/>
<path d="M6511 12934 c0 -11 3 -14 6 -6 3 7 2 16 -1 19 -3 4 -6 -2 -5 -13z"/>
<path d="M6277 12934 c-3 -3 -3 -13 0 -22 4 -9 2 -13 -4 -9 -5 3 -10 0 -10 -7
0 -8 8 -11 20 -8 12 3 18 1 14 -5 -4 -6 2 -18 13 -28 17 -15 20 -16 20 -3 0 9
-7 21 -15 28 -10 9 -12 17 -5 30 13 24 -13 43 -33 24z"/>
<path d="M6397 12926 c-3 -8 0 -22 7 -32 12 -16 13 -15 12 9 -2 31 -11 43 -19
23z"/>
<path d="M7075 12890 c-3 -5 -3 -15 0 -20 8 -13 35 6 35 23 0 6 -7 2 -16 -9
-13 -16 -15 -16 -10 -1 6 19 1 23 -9 7z"/>
<path d="M6346 12866 c3 -8 12 -12 20 -9 21 8 17 23 -6 23 -13 0 -18 -5 -14
-14z"/>
<path d="M6401 12834 c0 -11 3 -14 6 -6 3 7 2 16 -1 19 -3 4 -6 -2 -5 -13z"/>
<path d="M6563 12695 c-3 -9 -3 -18 -1 -21 3 -3 8 4 11 16 6 23 -1 27 -10 5z"/>
<path d="M7106 10295 c24 -39 24 -40 24 -28 0 6 -9 21 -21 34 l-20 24 17 -30z"/>
<path d="M8071 14295 c1 -19 18 -51 18 -35 0 8 -4 22 -9 30 -5 8 -9 11 -9 5z"/>
<path d="M8052 14260 c0 -14 4 -36 8 -50 8 -24 8 -24 8 5 0 17 -3 39 -8 50 -8
18 -9 18 -8 -5z"/>
<path d="M8094 14211 c3 -18 6 -42 6 -52 0 -11 5 -19 10 -19 13 0 2 81 -13 95
-6 7 -8 -1 -3 -24z"/>
<path d="M7920 14047 c0 -27 20 -71 28 -61 5 5 14 22 20 38 11 25 11 28 -4 22
-9 -3 -23 -1 -30 5 -11 9 -14 8 -14 -4z"/>
<path d="M7637 13233 c-4 -3 -7 -11 -7 -17 0 -6 5 -5 12 2 6 6 9 14 7 17 -3 3
-9 2 -12 -2z"/>
<path d="M7508 13141 c-9 -10 -24 -24 -34 -29 -18 -10 -17 -12 9 -35 17 -14
27 -32 25 -43 -2 -14 3 -19 22 -21 14 0 43 -4 65 -8 47 -8 43 -8 73 -6 32 1
57 58 37 81 -8 9 -12 25 -8 38 3 13 1 22 -6 22 -6 0 -11 -8 -11 -17 0 -15 -2
-16 -10 -3 -5 8 -10 11 -10 6 0 -5 -8 -2 -17 6 -13 11 -34 14 -71 12 -32 -2
-51 0 -47 6 10 16 0 11 -17 -9z"/>
<path d="M7646 13151 c-4 -5 -2 -12 3 -15 5 -4 12 -2 15 3 4 5 2 12 -3 15 -5
4 -12 2 -15 -3z"/>
<path d="M4150 12278 c0 -9 5 -20 10 -23 13 -8 13 5 0 25 -8 13 -10 13 -10 -2z"/>
<path d="M4510 10869 c0 -31 -48 -206 -66 -241 -21 -41 -127 -179 -193 -252
-35 -39 -36 -39 -6 -18 46 31 146 146 182 210 18 31 44 93 58 137 25 82 43
185 31 185 -3 0 -6 -9 -6 -21z"/>
<path d="M4500 10579 c0 -5 5 -7 10 -4 6 3 10 8 10 11 0 2 -4 4 -10 4 -5 0
-10 -5 -10 -11z"/>
<path d="M4037 10183 c-64 -65 -98 -131 -103 -201 l-4 -57 15 53 c20 72 34 96
99 175 31 38 56 71 56 73 0 14 -23 -2 -63 -43z"/>
<path d="M7742 10108 c3 -7 14 -12 26 -11 36 1 38 3 22 13 -21 14 -52 12 -48
-2z"/>
<path d="M3830 10070 c-14 -11 -20 -20 -14 -20 6 0 19 9 29 20 23 25 17 25
-15 0z"/>
<path d="M3942 9880 c0 -14 2 -19 5 -12 2 6 2 18 0 25 -3 6 -5 1 -5 -13z"/>
<path d="M9363 9484 c15 -17 27 -34 27 -40 0 -5 11 -14 25 -20 22 -11 24 -10
15 6 -5 10 -29 33 -52 51 l-43 33 28 -30z"/>
<path d="M2949 9433 c-13 -16 -12 -17 4 -4 9 7 17 15 17 17 0 8 -8 3 -21 -13z"/>
<path d="M4551 9434 c0 -11 3 -14 6 -6 3 7 2 16 -1 19 -3 4 -6 -2 -5 -13z"/>
<path d="M9506 9348 c19 -31 146 -198 156 -204 9 -6 -37 68 -64 101 -5 6 -27
34 -49 63 -37 48 -61 69 -43 40z"/>
<path d="M4737 9219 c4 -13 8 -18 11 -10 2 7 -1 18 -6 23 -8 8 -9 4 -5 -13z"/>
<path d="M4745 9182 c3 -3 -1 -12 -8 -21 -10 -14 -10 -14 4 -4 9 7 18 11 21 8
2 -3 5 1 5 8 0 8 -6 14 -14 14 -7 0 -11 -3 -8 -5z"/>
<path d="M2580 9155 c-17 -10 -20 -14 -9 -15 9 0 22 7 29 15 15 18 12 18 -20
0z"/>
<path d="M5215 9040 c-4 -6 -10 -8 -15 -5 -5 3 -12 1 -15 -5 -5 -8 -11 -8 -20
0 -9 8 -15 8 -20 0 -3 -6 -10 -8 -15 -5 -5 3 -12 1 -15 -5 -4 -6 -3 -10 2 -9
4 1 10 0 13 -1 18 -8 59 -5 57 4 -3 13 46 15 55 1 5 -6 8 -5 8 3 0 8 5 10 13
6 7 -4 9 -3 4 2 -5 5 -12 9 -15 9 -4 0 -12 4 -19 8 -6 4 -14 3 -18 -3z m-51
-18 c3 -5 -1 -9 -9 -9 -8 0 -12 4 -9 9 3 4 7 8 9 8 2 0 6 -4 9 -8z"/>
<path d="M6205 8941 c-3 -5 -2 -12 3 -15 5 -3 9 1 9 9 0 17 -3 19 -12 6z"/>
<path d="M2144 8905 c-7 -17 4 -38 15 -30 5 2 11 14 14 25 6 23 -20 29 -29 5z"/>
<path d="M6363 8882 c4 -36 12 -49 19 -30 3 7 -1 24 -9 38 -13 25 -13 25 -10
-8z"/>
<path d="M6754 8611 c-10 -17 -22 -27 -27 -24 -6 4 -7 1 -2 -7 8 -13 23 0 46
43 16 29 1 19 -17 -12z"/>
<path d="M10025 8610 c9 -16 18 -30 21 -30 2 0 -2 14 -11 30 -9 17 -18 30 -21
30 -2 0 2 -13 11 -30z"/>
<path d="M1812 8582 c-49 -45 -54 -59 -14 -38 22 12 73 76 59 76 -2 0 -22 -17
-45 -38z"/>
<path d="M6700 8535 c-7 -9 -11 -17 -9 -20 3 -2 10 5 17 15 14 24 10 26 -8 5z"/>
<path d="M1602 8369 c-46 -49 -81 -93 -77 -99 4 -6 39 24 83 71 83 87 96 105
85 112 -5 2 -45 -36 -91 -84z"/>
<path d="M10130 8425 c0 -13 32 -66 36 -62 6 6 -23 67 -31 67 -3 0 -5 -2 -5
-5z"/>
<path d="M10200 8285 c0 -5 5 -17 10 -25 5 -8 10 -10 10 -5 0 6 -5 17 -10 25
-5 8 -10 11 -10 5z"/>
<path d="M1461 8189 c-17 -24 -28 -45 -25 -48 4 -3 9 0 11 7 3 7 16 26 30 43
14 16 23 32 20 35 -2 3 -19 -14 -36 -37z"/>
<path d="M1372 8035 c-14 -29 2 -34 18 -6 12 24 13 31 2 31 -5 0 -14 -11 -20
-25z"/>
<path d="M10290 8040 c0 -23 30 -93 37 -87 6 7 -18 97 -28 103 -5 3 -9 -5 -9
-16z"/>
<path d="M6290 7975 c-68 -12 -119 -24 -221 -54 -33 -10 -38 -18 -64 -84 -15
-39 -36 -89 -47 -109 -18 -38 -18 -38 -38 -18 -11 11 -27 20 -36 20 -9 0 -39
21 -67 46 -28 25 -58 49 -66 53 -30 16 -58 -5 -75 -55 -36 -105 -18 -153 101
-276 52 -54 92 -102 88 -108 -3 -5 0 -10 8 -10 11 0 14 -29 15 -151 3 -338 50
-506 172 -629 62 -61 166 -118 269 -146 35 -10 65 -23 68 -29 2 -7 12 -90 21
-185 l18 -174 -91 -90 c-197 -198 -229 -367 -136 -720 12 -44 21 -99 21 -123
0 -35 3 -43 18 -43 12 0 23 -15 35 -47 19 -50 13 -63 -27 -63 -18 0 -19 -7
-10 -182 11 -230 11 -360 0 -615 l-8 -203 24 0 c13 0 78 15 143 34 l120 33 0
89 c0 49 -4 181 -9 294 -4 113 -5 202 -2 199 6 -6 29 -230 45 -437 5 -68 11
-125 14 -128 6 -6 217 55 233 67 8 6 10 62 8 177 -3 144 -2 163 9 139 l13 -28
13 23 c6 13 9 15 7 6 -8 -27 3 -21 14 8 7 17 14 23 22 17 21 -13 35 -12 35 3
0 8 -4 14 -9 14 -5 0 -7 4 -4 8 3 5 -9 7 -27 5 -31 -4 -30 -3 7 11 22 8 43 13
47 10 4 -2 10 0 14 6 3 5 17 10 29 10 24 0 24 0 28 -164 2 -91 7 -168 11 -172
4 -4 40 3 79 15 40 13 105 31 146 41 40 10 76 21 80 25 4 3 7 178 7 388 0 345
-2 387 -18 429 -23 59 -86 118 -127 118 -34 0 -33 -2 -50 130 -16 119 -73 361
-115 488 -20 59 -60 155 -90 214 -38 75 -58 128 -65 175 -6 37 -22 115 -35
173 -20 90 -22 116 -15 180 41 347 -44 835 -208 1190 -20 43 -107 175 -133
201 -23 23 -76 24 -189 4z m98 -270 c18 -18 -95 -49 -185 -51 -40 0 -73 0 -73
2 0 8 83 45 117 53 38 8 132 6 141 -4z m-458 -42 c0 -12 -2 -12 -15 1 -8 8
-15 17 -15 20 0 3 7 3 15 0 8 -4 15 -13 15 -21z m626 -90 c43 -78 94 -213 94
-248 0 -8 -4 -15 -9 -15 -5 0 -8 8 -7 18 4 24 -32 49 -47 32 -9 -10 -9 -11 2
-5 10 6 12 4 6 -5 -6 -10 -11 -9 -22 5 -12 18 -13 17 -13 -6 0 -19 -2 -21 -10
-9 -5 8 -10 10 -10 5 0 -6 -17 -10 -37 -9 -23 2 -45 -4 -57 -14 -11 -10 -17
-12 -13 -6 4 7 -26 11 -97 10 -88 0 -107 3 -132 21 -16 11 -39 23 -51 27 -11
4 -23 13 -26 20 -4 9 8 11 48 8 30 -2 62 1 75 8 18 10 21 10 15 -2 -6 -10 -5
-11 6 0 7 6 27 12 44 12 18 0 35 3 39 7 11 12 40 12 53 1 9 -7 13 -7 13 1 0 6
9 11 21 11 11 0 18 3 16 8 -2 4 7 18 21 32 14 14 20 18 13 8 -9 -13 -9 -18 0
-24 8 -4 9 -3 5 4 -4 7 -2 12 3 12 6 0 11 6 11 14 0 8 4 18 10 21 5 3 8 0 7
-7 -2 -7 -2 -10 0 -5 3 4 8 5 12 3 4 -3 8 1 8 8 0 7 -9 13 -20 12 -11 -1 -21
6 -22 15 -2 9 3 16 11 16 11 0 11 -4 2 -16 -10 -13 -9 -13 6 1 17 15 14 44 -3
33 -5 -2 -6 7 -3 20 4 21 1 24 -13 18 -13 -4 -16 -3 -11 5 4 7 3 12 -3 12 -7
0 -8 12 -2 38 3 13 27 -21 67 -95z m-81 48 c3 -5 2 -12 -3 -15 -5 -3 -9 1 -9
9 0 17 3 19 12 6z m35 -26 c0 -2 -6 -8 -13 -14 -10 -8 -14 -7 -14 2 0 8 6 14
14 14 7 0 13 -1 13 -2z m173 -402 c32 -138 41 -222 42 -383 0 -139 -3 -170
-18 -197 -19 -36 -83 -74 -119 -72 -18 1 -19 2 -5 6 18 5 18 5 0 18 -11 8 -20
10 -24 3 -9 -13 -21 70 -13 85 4 7 3 8 -1 4 -5 -4 -26 45 -47 110 -38 119 -43
177 -23 263 5 21 4 21 -9 -5 l-15 -30 4 30 c2 17 4 41 4 55 1 19 3 22 10 10 6
-8 7 -19 3 -25 -3 -5 2 -4 11 4 9 7 17 21 16 30 0 12 -2 11 -9 -4 -8 -18 -9
-17 -7 7 1 20 6 25 20 22 14 -2 17 1 13 14 -6 16 -5 16 7 0 8 -10 17 -15 20
-11 4 3 2 11 -3 18 -7 8 -5 12 4 12 14 0 16 -21 3 -33 -14 -14 -7 -26 8 -14 8
7 15 9 15 4 0 -5 4 -3 9 4 7 11 9 11 14 -1 3 -9 -1 -21 -9 -28 -13 -10 -17
-10 -25 2 -7 12 -9 12 -9 -1 0 -13 -2 -13 -11 0 -9 13 -10 13 -6 -2 3 -9 3
-19 -1 -22 -10 -11 -11 -37 -1 -30 5 3 7 9 4 14 -3 5 -1 11 5 15 9 6 14 -8 11
-28 -1 -5 3 -6 8 -2 6 3 8 12 4 20 -3 8 0 15 6 15 6 0 11 -4 11 -10 0 -5 12 0
26 13 14 12 29 21 32 21 4 -1 12 10 19 25 12 24 12 23 6 -13 -4 -28 -3 -37 6
-32 14 9 14 56 -2 133 -18 83 -3 71 16 -14z m-715 -59 c4 2 6 -19 4 -47 -2
-29 1 -47 5 -40 4 6 8 -26 8 -70 1 -45 4 -95 8 -112 4 -18 4 -24 -1 -15 -15
25 -31 130 -35 240 -3 58 -3 90 0 72 2 -18 7 -30 11 -28z m643 -47 c-10 -9
-11 -8 -5 6 3 10 9 15 12 12 3 -3 0 -11 -7 -18z m-169 -16 c6 9 7 0 3 -25 -3
-23 -1 -44 6 -53 7 -7 9 -16 6 -20 -4 -3 -12 6 -18 21 -7 14 -15 26 -19 26 -4
0 -10 11 -12 25 -3 13 -1 22 3 19 5 -3 9 1 10 8 0 10 2 10 6 -1 5 -11 7 -11
15 0z m-366 -67 c-3 -25 -2 -43 2 -40 3 4 6 20 7 36 2 42 24 63 32 31 4 -17 8
-19 14 -9 7 10 9 11 9 0 0 -8 5 -10 13 -6 8 5 7 2 -2 -9 -12 -15 -12 -17 1
-12 17 7 43 -19 34 -33 -3 -6 2 -16 12 -23 16 -13 16 -13 2 6 -14 19 -14 19 3
6 18 -14 25 -47 7 -36 -5 3 -10 4 -10 1 0 -17 22 -13 29 6 9 21 10 21 10 3 1
-12 -5 -27 -11 -35 -7 -8 -3 -6 10 5 13 11 23 15 21 10 -4 -22 14 -74 24 -68
5 3 7 1 3 -5 -3 -6 -1 -14 5 -17 5 -4 8 -13 5 -20 -2 -7 2 -12 11 -11 23 2 40
-30 27 -51 -16 -29 -12 -58 9 -56 10 0 16 -1 13 -4 -3 -3 -1 -13 4 -22 6 -12
2 -23 -16 -40 -13 -13 -21 -28 -18 -33 8 -12 -56 -3 -85 12 -9 4 -28 13 -44
19 -15 6 -27 14 -26 18 3 20 -2 27 -11 13 -8 -13 -10 -13 -10 1 0 9 -9 24 -20
34 -12 11 -20 13 -20 6 0 -6 7 -14 15 -17 8 -4 15 -10 15 -16 0 -5 -18 6 -40
24 -22 18 -39 38 -39 43 0 6 3 4 6 -2 2 -7 9 -13 15 -13 6 0 8 7 5 15 -4 8 -2
17 3 20 4 3 6 17 4 33 -2 15 -7 52 -10 82 -4 30 -9 62 -13 70 -9 20 -6 130 4
130 2 0 3 -21 1 -46z m353 -24 c11 -24 11 -24 -3 -6 -9 11 -16 24 -16 30 0 12
5 7 19 -24z m24 -35 c-3 -9 -8 -14 -10 -11 -3 3 -2 9 2 15 9 16 15 13 8 -4z
m183 -640 c3 -18 4 -43 2 -56 -3 -18 -7 -11 -16 26 -26 112 -25 102 -8 81 9
-11 18 -34 22 -51z m225 -360 c7 -13 3 -12 -10 5 -11 14 -21 30 -21 35 0 11
14 -7 31 -40z m-449 -61 c-23 -20 -39 -41 -36 -46 4 -7 2 -8 -4 -4 -7 4 -12 1
-12 -8 0 -9 -4 -15 -9 -13 -5 1 -9 -2 -10 -8 0 -5 8 -9 17 -7 9 1 23 -7 29
-17 11 -17 10 -19 -2 -15 -19 8 -33 -25 -16 -36 9 -5 6 -9 -8 -13 -12 -3 -22
-14 -22 -26 -2 -34 -4 -39 -13 -48 -5 -5 -6 -3 -2 5 4 6 2 12 -3 12 -6 0 -11
-5 -11 -11 0 -5 -4 -7 -10 -4 -5 3 -10 -1 -10 -10 0 -9 -4 -14 -8 -11 -11 6
-9 -40 1 -50 4 -4 7 -18 7 -31 0 -13 4 -22 8 -19 5 3 9 -1 9 -9 0 -8 -3 -12
-7 -10 -16 10 -55 -56 -42 -70 4 -4 8 -11 8 -16 3 -22 5 -23 14 -9 8 11 9 7 4
-15 -16 -74 -34 -49 -55 78 -15 91 -3 191 32 260 24 47 159 187 180 187 8 0
-5 -16 -29 -36z m469 19 c13 -16 12 -17 -3 -4 -10 7 -18 15 -18 17 0 8 8 3 21
-13z m-442 -110 c-7 -10 -14 -19 -15 -21 -1 -2 -4 4 -8 13 -3 9 -2 13 3 10 5
-3 12 -1 16 5 3 5 9 10 12 10 3 0 -1 -8 -8 -17z m548 -225 c-3 -8 -6 -5 -6 6
-1 11 2 17 5 13 3 -3 4 -12 1 -19z m-683 -90 c-3 -5 -10 -6 -15 -3 -5 4 -9 1
-9 -6 0 -7 -3 -10 -6 -6 -9 9 3 24 20 24 8 0 13 -4 10 -9z m647 -15 c13 -16
12 -17 -3 -4 -10 7 -18 15 -18 17 0 8 8 3 21 -13z m-631 -9 c0 -8 -19 -13 -24
-6 -3 5 1 9 9 9 8 0 15 -2 15 -3z m635 -44 c2 -12 3 -21 1 -19 -3 2 -5 9 -6
14 -1 6 -7 19 -12 30 -8 15 -8 17 1 9 6 -6 13 -21 16 -34z m62 -42 c-3 -8 -6
-5 -6 6 -1 11 2 17 5 13 3 -3 4 -12 1 -19z"/>
<path d="M6505 7089 c0 -30 9 -27 19 7 4 13 2 21 -6 21 -8 0 -13 -12 -13 -28z"/>
<path d="M6566 7098 c3 -5 10 -6 15 -3 13 9 11 12 -6 12 -8 0 -12 -4 -9 -9z"/>
<path d="M6495 7041 c-3 -5 -2 -12 3 -15 5 -3 9 1 9 9 0 17 -3 19 -12 6z"/>
<path d="M6533 6948 c-13 -23 -13 -40 1 -29 7 6 17 7 22 3 4 -4 3 0 -4 9 -6 9
-9 19 -5 22 3 4 4 7 0 7 -3 0 -9 -6 -14 -12z"/>
<path d="M6534 6899 c-8 -14 14 -19 25 -6 8 10 7 14 -5 14 -8 0 -17 -4 -20 -8z"/>
<path d="M6477 6859 c7 -27 22 -34 20 -9 -1 10 -7 22 -13 24 -7 3 -10 -3 -7
-15z"/>
<path d="M6101 7024 c0 -11 3 -14 6 -6 3 7 2 16 -1 19 -3 4 -6 -2 -5 -13z"/>
<path d="M6243 6865 c0 -8 4 -12 9 -9 5 3 6 10 3 15 -9 13 -12 11 -12 -6z"/>
<path d="M6316 6767 c3 -10 9 -15 12 -12 3 3 0 11 -7 18 -10 9 -11 8 -5 -6z"/>
<path d="M6347 5776 c-4 -10 -1 -13 9 -9 7 3 14 9 14 14 0 14 -17 10 -23 -5z"/>
<path d="M6265 5510 c-3 -6 1 -7 9 -4 18 7 21 14 7 14 -6 0 -13 -4 -16 -10z"/>
<path d="M10331 7900 c-1 -25 5 -54 13 -65 7 -11 19 -53 25 -93 6 -40 18 -83
25 -95 7 -12 17 -35 20 -51 4 -15 10 -26 13 -22 3 3 -1 25 -10 48 -9 24 -28
93 -42 153 -13 61 -29 124 -34 140 -9 29 -9 28 -10 -15z"/>
<path d="M1298 7843 c-9 -10 -19 -29 -23 -43 -7 -22 -6 -23 8 -12 13 11 41 72
33 72 -2 0 -10 -8 -18 -17z"/>
<path d="M1236 7688 c-9 -12 -16 -29 -16 -38 0 -8 10 0 21 18 24 37 20 55 -5
20z"/>
<path d="M10441 7524 c0 -11 3 -14 6 -6 3 7 2 16 -1 19 -3 4 -6 -2 -5 -13z"/>
<path d="M10461 7464 c0 -11 3 -14 6 -6 3 7 2 16 -1 19 -3 4 -6 -2 -5 -13z"/>
<path d="M1111 7324 c0 -11 3 -14 6 -6 3 7 2 16 -1 19 -3 4 -6 -2 -5 -13z"/>
<path d="M10616 6955 c9 -28 24 -77 34 -110 42 -136 69 -209 76 -202 7 7 -58
243 -75 272 -3 6 -7 19 -9 30 -1 11 -12 29 -23 40 -20 20 -20 20 -3 -30z"/>
<path d="M938 6895 c-3 -6 -8 -23 -12 -40 l-6 -30 16 28 c8 16 14 33 11 40 -2
6 -6 7 -9 2z"/>
<path d="M10737 6582 c6 -70 73 -255 73 -202 0 7 -6 36 -14 64 -8 28 -23 79
-32 114 -21 77 -33 88 -27 24z"/>
<path d="M846 6545 c4 -9 11 -14 16 -13 15 5 11 23 -6 26 -11 2 -14 -2 -10
-13z"/>
<path d="M818 6402 c-18 -62 -58 -268 -58 -292 1 -36 18 18 30 95 6 44 21 118
32 164 22 96 19 119 -4 33z"/>
<path d="M10810 6330 c0 -5 5 -10 11 -10 5 0 7 5 4 10 -3 6 -8 10 -11 10 -2 0
-4 -4 -4 -10z"/>
<path d="M10870 6148 c11 -51 81 -252 91 -262 23 -25 4 46 -52 196 -16 42 -29
82 -29 87 0 6 -4 11 -9 11 -5 0 -6 -15 -1 -32z"/>
<path d="M751 6054 c0 -11 3 -14 6 -6 3 7 2 16 -1 19 -3 4 -6 -2 -5 -13z"/>
<path d="M735 5949 c-10 -69 -1 -72 12 -4 5 30 6 55 2 55 -4 0 -10 -23 -14
-51z"/>
<path d="M9152 5875 c-19 -8 -53 -29 -75 -47 -102 -79 -115 -107 -98 -226 37
-254 59 -341 89 -344 9 0 44 -2 77 -2 l60 -1 3 -63 c2 -46 -2 -71 -13 -88 -27
-42 -46 -32 -70 41 -6 18 -11 15 -50 -27 -24 -27 -46 -48 -49 -48 -3 0 -6 24
-6 53 -1 97 -34 156 -105 188 -46 21 -112 24 -237 8 -100 -12 -141 -1 -146 40
-9 59 29 103 101 116 33 6 40 4 66 -24 16 -17 35 -31 43 -31 20 0 163 55 200
77 39 23 40 44 5 113 -31 63 -72 84 -160 82 -253 -4 -458 -150 -507 -361 -25
-106 8 -228 72 -266 29 -18 51 -20 200 -20 191 0 206 -5 194 -67 -11 -60 -79
-108 -152 -108 -47 0 -69 13 -84 50 -7 16 -14 30 -15 30 -10 0 -94 -35 -167
-69 -48 -23 -92 -41 -97 -41 -5 0 -14 -6 -20 -14 -6 -7 -30 -17 -54 -20 -23
-4 -71 -16 -107 -26 -60 -18 -69 -24 -100 -72 -45 -67 -77 -90 -137 -95 -46
-5 -51 -3 -81 31 -30 35 -49 92 -39 120 3 7 16 16 29 19 76 17 183 53 252 84
44 20 125 48 180 63 l101 27 8 48 c13 78 -7 238 -38 300 -35 71 -91 120 -161
141 -49 14 -67 15 -132 4 -311 -50 -550 -314 -569 -629 -14 -232 61 -392 207
-445 41 -15 66 -17 126 -12 130 12 273 66 325 123 31 33 112 154 159 237 l33
59 20 -39 c60 -120 129 -135 352 -79 189 48 342 155 402 279 9 20 19 36 22 36
4 0 16 -27 29 -59 33 -84 41 -88 102 -55 28 15 56 37 62 48 25 46 49 171 64
326 15 167 13 213 -11 261 -18 34 -35 40 -80 28 -21 -6 -48 -8 -61 -5 -21 6
-24 12 -24 54 0 80 57 127 80 66 l10 -25 26 20 c14 11 50 25 79 31 30 6 57 16
61 21 3 5 0 35 -6 65 -22 104 -105 157 -188 119z m-1204 -715 c14 -27 22 -59
20 -80 -3 -32 -7 -36 -63 -57 -93 -34 -197 -63 -206 -57 -11 7 -1 59 23 114
35 83 100 132 168 127 31 -2 38 -8 58 -47z"/>
<path d="M10975 5850 c3 -14 10 -45 15 -70 4 -25 16 -58 24 -75 9 -16 16 -37
16 -45 1 -22 29 -69 30 -49 0 20 -66 225 -80 247 -10 14 -10 13 -5 -8z"/>
<path d="M695 5748 c-3 -24 -9 -59 -12 -78 -9 -56 4 -30 15 30 6 30 14 63 17
73 4 9 3 17 -3 17 -6 0 -13 -19 -17 -42z"/>
<path d="M671 5604 c0 -11 3 -14 6 -6 3 7 2 16 -1 19 -3 4 -6 -2 -5 -13z"/>
<path d="M662 5549 c-1 -9 -5 -32 -8 -50 -5 -26 -4 -31 5 -23 7 7 11 28 8 50
-2 22 -4 32 -5 23z"/>
<path d="M615 5470 c-4 -12 -5 -24 -2 -27 3 -2 8 5 12 17 4 12 5 24 2 27 -3 2
-8 -5 -12 -17z"/>
<path d="M11121 5404 c0 -11 3 -14 6 -6 3 7 2 16 -1 19 -3 4 -6 -2 -5 -13z"/>
<path d="M589 5312 c-3 -20 -2 -29 4 -23 5 5 7 19 5 32 -3 20 -5 19 -9 -9z"/>
<path d="M6085 5315 c-27 -7 -81 -17 -118 -23 -38 -6 -72 -13 -75 -17 -4 -4
-7 -304 -7 -667 l0 -660 60 6 c33 3 99 8 147 12 l87 7 5 61 c17 201 26 574 16
721 -5 88 -12 230 -15 315 -3 85 -8 179 -11 208 -6 58 -5 58 -89 37z"/>
<path d="M11156 5293 c3 -21 12 -48 20 -60 7 -11 19 -43 25 -69 7 -27 14 -44
16 -38 4 13 -55 204 -63 204 -3 0 -2 -17 2 -37z"/>
<path d="M581 5254 c0 -11 3 -14 6 -6 3 7 2 16 -1 19 -3 4 -6 -2 -5 -13z"/>
<path d="M5780 5265 c-8 -2 -60 -9 -116 -15 -55 -7 -106 -15 -112 -19 -7 -4
-11 -51 -13 -126 l-1 -120 23 1 c13 0 62 7 109 13 47 7 96 14 110 15 47 3 50
10 50 137 0 127 1 124 -50 114z"/>
<path d="M572 5200 c0 -14 2 -19 5 -12 2 6 2 18 0 25 -3 6 -5 1 -5 -13z"/>
<path d="M11235 5068 c7 -37 23 -78 30 -78 8 0 -6 52 -22 80 l-14 25 6 -27z"/>
<path d="M541 5034 c0 -11 3 -14 6 -6 3 7 2 16 -1 19 -3 4 -6 -2 -5 -13z"/>
<path d="M4055 4943 c-11 -2 -57 -13 -102 -24 -101 -24 -149 -25 -157 -3 -5
12 -13 14 -34 9 -15 -3 -30 -9 -34 -13 -4 -4 0 -50 8 -102 7 -52 32 -241 54
-420 23 -179 48 -356 56 -395 8 -38 24 -121 34 -184 10 -62 20 -114 22 -116 2
-1 13 -8 26 -14 12 -7 22 -21 22 -34 0 -12 3 -33 7 -46 6 -22 9 -23 63 -18
157 14 327 154 397 327 53 132 67 229 67 460 1 233 -9 296 -62 408 -30 65
-106 135 -169 156 -43 15 -150 20 -198 9z m-13 -343 c79 -22 110 -104 110
-286 0 -278 -55 -402 -189 -427 -18 -4 -35 -2 -38 3 -6 10 -17 92 -45 330 -25
214 -35 385 -24 378 5 -3 27 -2 49 2 58 11 95 11 137 0z"/>
<path d="M11280 4940 c0 -8 5 -22 10 -30 9 -13 10 -13 10 0 0 8 -5 22 -10 30
-9 13 -10 13 -10 0z"/>
<path d="M5725 4895 c-44 -8 -104 -19 -132 -26 -48 -11 -53 -15 -57 -43 -3
-17 -12 -220 -21 -451 -9 -231 -18 -432 -20 -447 -2 -15 0 -30 6 -33 18 -12
318 49 325 65 8 21 18 891 10 923 -3 15 -12 27 -19 26 -6 -1 -48 -7 -92 -14z"/>
<path d="M5000 4780 c-208 -40 -324 -103 -407 -222 -43 -61 -81 -165 -66 -178
4 -4 67 -1 138 6 72 7 138 13 147 13 10 1 26 18 38 41 38 75 109 119 192 120
52 0 78 -23 78 -70 0 -32 -54 -66 -290 -182 -202 -99 -272 -153 -316 -245 -51
-103 -35 -249 34 -322 51 -54 104 -67 202 -51 112 18 191 60 282 152 43 43 79
78 82 78 2 0 6 -18 10 -39 3 -22 11 -43 17 -47 9 -5 151 16 287 42 21 4 22 8
15 42 -9 42 -10 220 -3 502 l5 195 -32 66 c-28 55 -40 70 -82 92 -44 24 -59
27 -142 26 -52 -1 -137 -9 -189 -19z m105 -582 c-4 -35 -18 -84 -31 -109 -55
-110 -197 -179 -246 -120 -10 13 -18 32 -18 42 0 30 25 82 51 106 26 24 228
143 242 143 5 0 6 -28 2 -62z"/>
<path d="M6965 4512 c-11 -9 -21 -27 -21 -40 -1 -19 9 -23 12 -4 2 20 17 41
25 36 5 -3 9 2 9 10 0 19 0 19 -25 -2z"/>
<path d="M11440 4494 c0 -6 7 -19 16 -30 14 -18 14 -18 3 6 -14 31 -19 36 -19
24z"/>
<path d="M11495 4370 c12 -41 27 -60 20 -25 -4 17 -11 35 -17 40 -7 7 -8 2 -3
-15z"/>
<path d="M11530 4265 c0 -11 5 -27 10 -35 8 -12 10 -12 10 5 0 11 -5 27 -10
35 -8 12 -10 12 -10 -5z"/>
<path d="M8738 4214 c-33 -18 -33 -13 -8 -149 11 -60 20 -120 20 -135 0 -34
26 -71 45 -64 19 8 19 44 0 159 -8 50 -15 94 -15 99 0 4 -9 6 -20 3 -11 -3
-20 -2 -20 3 0 4 9 10 19 13 12 3 21 16 23 33 4 31 3 38 33 -174 8 -57 17
-108 21 -113 8 -14 44 -11 50 5 3 7 -4 82 -15 166 -12 84 -21 157 -21 162 0
14 -83 8 -112 -8z"/>
<path d="M8434 4083 c-3 -16 -10 -41 -15 -57 -12 -37 -12 -79 0 -91 5 -6 14
-36 20 -69 6 -32 16 -65 22 -72 16 -20 43 -17 65 7 14 16 16 24 7 37 -6 9 -17
16 -26 14 -8 -1 -17 8 -21 20 -9 35 -7 98 3 98 5 0 12 12 16 27 5 21 2 32 -14
44 -12 10 -21 29 -21 43 0 35 -28 34 -36 -1z"/>
<path d="M8591 4091 c-23 -6 -61 -62 -61 -88 0 -12 13 -17 33 -14 12 2 7 -23
-8 -43 -21 -28 -19 -69 6 -100 23 -30 45 -33 77 -10 13 9 31 13 43 9 42 -14
61 29 35 80 -8 15 -17 54 -21 86 -10 83 -32 100 -104 80z m19 -81 c0 -5 -4
-10 -10 -10 -5 0 -10 5 -10 10 0 6 5 10 10 10 6 0 10 -4 10 -10z m30 -78 c0
-24 -8 -32 -26 -25 -10 4 -11 10 -3 24 12 24 29 25 29 1z"/>
<path d="M384 4015 c-4 -8 -4 -24 -1 -35 3 -10 0 -21 -5 -22 -5 -2 -8 -14 -6
-26 2 -15 7 -19 17 -13 18 11 28 111 12 111 -6 0 -14 -7 -17 -15z"/>
<path d="M8190 3945 c0 -30 -4 -55 -10 -55 -19 0 -40 -60 -40 -112 0 -60 12
-109 36 -145 l16 -25 23 22 c13 12 28 19 34 16 20 -13 21 16 6 121 -9 60 -19
126 -22 148 -8 69 -13 85 -28 85 -11 0 -15 -13 -15 -55z m16 -147 c11 -28 6
-108 -6 -108 -5 0 -14 19 -20 41 -18 65 4 120 26 67z"/>
<path d="M8287 3942 c-24 -25 -28 -38 -28 -85 0 -108 29 -163 84 -155 22 3 67
60 67 84 0 19 -49 18 -56 -1 -8 -19 -24 -20 -24 -2 0 8 17 25 38 38 31 21 37
30 35 58 -1 19 -10 46 -21 60 -27 37 -61 38 -95 3z m49 -67 c-6 -16 -36 -21
-36 -6 0 5 8 17 17 27 18 18 30 6 19 -21z"/>
<path d="M11596 3943 c-4 -12 -24 -36 -44 -54 -52 -46 -61 -65 -15 -36 40 25
78 78 70 99 -2 8 -7 4 -11 -9z"/>
<path d="M361 3713 c-5 -43 -13 -112 -16 -153 -3 -41 -8 -96 -11 -122 -3 -30
-1 -48 6 -48 5 0 10 16 10 36 0 19 4 43 9 52 8 16 24 312 17 312 -2 0 -9 -35
-15 -77z"/>
<path d="M7893 3769 c-18 -7 -22 -18 -28 -83 -4 -42 -10 -76 -14 -76 -4 0 -15
24 -24 53 -25 77 -31 83 -61 69 l-25 -11 16 -48 c9 -26 24 -59 33 -73 23 -35
50 -106 50 -134 0 -15 -9 -27 -25 -34 -28 -13 -33 -43 -11 -61 17 -15 70 8 84
37 16 29 43 355 31 366 -2 2 -14 0 -26 -5z"/>
<path d="M9641 3730 c-1 -30 -4 -79 -8 -109 -4 -38 -3 -52 5 -47 16 10 23 83
13 151 l-8 60 -2 -55z"/>
<path d="M7665 3711 c-3 -5 -22 -7 -42 -4 l-36 6 7 -59 c4 -32 15 -93 24 -134
15 -62 21 -76 39 -78 28 -4 32 12 20 84 -13 79 -5 114 28 114 20 0 25 5 25 24
0 13 -3 31 -6 40 -7 17 -49 22 -59 7z"/>
<path d="M7424 3647 c-58 -51 -37 -204 32 -233 49 -20 70 -17 106 15 27 25 31
33 22 48 -16 26 -40 27 -64 3 -24 -24 -43 -22 -48 3 -3 13 4 17 25 17 15 0 43
9 62 21 29 18 33 24 27 51 -3 17 -6 34 -6 38 0 4 -11 19 -25 34 -32 35 -92 36
-131 3z m96 -56 c0 -12 -11 -23 -30 -29 -34 -12 -41 -6 -29 26 11 29 59 32 59
3z"/>
<path d="M7301 3626 c-7 -8 -15 -47 -18 -88 l-6 -73 -34 73 c-28 63 -36 73
-56 70 -32 -5 -26 -34 35 -156 76 -152 92 -151 107 8 6 58 14 122 17 143 6 33
4 37 -13 37 -12 0 -26 -6 -32 -14z"/>
<path d="M7040 3553 c-71 -64 -52 -235 29 -256 44 -11 116 51 95 84 -8 14 -36
11 -55 -7 -10 -9 -23 -13 -28 -9 -22 13 -10 32 27 43 63 20 64 22 50 76 -12
45 -54 96 -79 96 -5 0 -22 -12 -39 -27z m56 -55 c4 -6 -3 -20 -17 -31 -22 -17
-24 -18 -27 -3 -4 18 14 46 29 46 4 0 11 -5 15 -12z"/>
<path d="M6594 3525 c-4 -8 -3 -27 1 -43 4 -15 9 -40 11 -57 7 -51 61 -236 73
-248 20 -20 36 7 23 40 -16 39 -62 238 -62 267 0 35 -10 56 -26 56 -8 0 -17
-7 -20 -15z"/>
<path d="M6735 3469 c-5 -15 -10 -18 -18 -10 -18 18 -47 13 -47 -8 0 -29 46
-216 59 -240 13 -24 22 -26 38 -10 8 8 6 30 -8 80 -29 106 -24 155 14 126 10
-7 22 -45 32 -102 8 -49 19 -93 24 -98 16 -16 31 3 31 36 0 55 -29 199 -45
223 -20 32 -71 33 -80 3z"/>
<path d="M5990 3401 c0 -53 -7 -65 -30 -51 -8 5 -22 5 -32 -1 -15 -8 -18 -23
-18 -84 0 -41 -3 -75 -7 -74 -5 0 -23 31 -41 70 -27 57 -37 69 -57 69 -13 0
-27 -4 -30 -10 -3 -5 -21 -10 -38 -10 -29 1 -30 2 -14 14 24 18 22 63 -4 76
-33 18 -49 -2 -38 -48 5 -20 9 -40 9 -43 0 -4 -15 -4 -32 0 -27 6 -34 12 -36
36 -2 17 -8 35 -13 40 -14 14 -49 -33 -49 -67 0 -16 -4 -28 -9 -28 -5 0 -11
-6 -14 -14 -8 -22 4 -56 19 -56 19 0 31 -33 39 -101 8 -71 23 -92 64 -92 40 0
62 21 54 51 -4 18 -11 22 -28 18 -21 -5 -24 -1 -35 62 -11 63 -10 68 9 81 12
7 21 20 21 27 0 23 20 16 30 -12 6 -14 10 -42 10 -62 1 -20 6 -64 13 -97 12
-54 15 -60 37 -60 22 0 25 4 22 30 -4 45 -20 178 -24 195 -14 63 65 -59 117
-181 13 -30 51 -37 59 -11 6 18 25 198 26 240 0 13 6 22 15 22 8 0 17 -10 19
-22 2 -13 9 -50 15 -83 27 -140 41 -167 70 -131 12 14 3 101 -19 176 -15 52
-13 69 6 42 8 -12 21 -22 29 -22 8 0 15 -18 20 -52 13 -106 39 -148 92 -148
28 0 36 14 28 50 -4 20 -13 30 -25 30 -21 0 -26 11 -35 73 -6 40 -5 46 13 51
12 4 22 17 24 29 4 30 108 -165 108 -204 0 -41 -10 -59 -31 -59 -11 0 -22 -7
-25 -15 -17 -44 73 -64 100 -22 16 25 25 104 29 252 2 95 1 100 -19 103 -26 4
-33 -18 -35 -98 l-1 -55 -34 73 c-36 77 -39 79 -121 72 -18 -1 -24 7 -33 39
-6 23 -16 41 -22 41 -16 0 -37 -32 -38 -58 0 -26 -39 -48 -67 -38 -17 7 -17 8
0 17 32 19 18 79 -19 79 -22 0 -24 -4 -24 -49z"/>
<path d="M11075 3403 c-62 -50 -225 -153 -311 -196 -164 -82 -276 -119 -593
-197 -397 -98 -494 -117 -519 -101 -5 3 -13 80 -16 170 -4 91 -8 166 -10 168
-1 2 -8 -61 -15 -140 -24 -283 -75 -614 -105 -688 -7 -19 -11 -40 -8 -48 3 -9
0 -11 -7 -7 -8 5 -10 0 -7 -18 3 -14 0 -28 -5 -32 -5 -3 -7 -9 -4 -14 3 -4 -3
-14 -12 -21 -15 -12 -16 -12 -11 3 4 9 4 19 0 22 -11 11 -10 96 1 89 6 -3 7
-1 3 5 -3 6 -11 55 -17 109 -11 107 -12 113 -23 161 -4 18 -12 29 -18 26 -7
-5 -7 -1 0 12 7 13 6 24 -6 43 -9 13 -17 34 -18 45 -9 99 -12 128 -16 132 -6
6 -7 -14 -7 -150 0 -65 1 -122 4 -126 8 -12 36 -474 30 -497 -3 -13 -1 -32 5
-43 8 -15 6 -23 -12 -40 -12 -11 -19 -20 -16 -20 4 0 3 -13 -2 -30 -10 -35 -3
-40 10 -7 6 16 9 17 9 5 1 -9 -5 -23 -12 -30 -9 -9 -13 -49 -13 -133 -2 -186
-7 -262 -21 -262 -11 0 -10 27 1 46 3 5 -2 15 -12 22 -15 12 -16 12 -5 -2 7
-9 10 -18 8 -21 -13 -13 -16 -72 -20 -378 -3 -179 -7 -359 -10 -400 -8 -111
-46 -331 -62 -362 -14 -29 -33 -37 -33 -15 0 6 -6 3 -13 -8 -8 -13 -12 -61
-11 -133 0 -62 -3 -108 -6 -101 -12 18 -20 -30 -20 -116 0 -44 -4 -85 -8 -92
-5 -8 -151 -12 -542 -14 -720 -3 -1170 -3 -1315 1 -116 2 -386 -8 -394 -16 -2
-2 878 -4 1956 -4 1567 0 1963 3 1971 13 12 14 72 245 72 275 0 10 9 45 20 78
35 103 113 526 145 779 9 72 20 155 25 185 16 90 49 434 57 595 15 283 0 1395
-20 1462 l-12 41 -30 -25z m-300 -347 c2 -6 6 -20 11 -31 4 -11 8 -24 8 -28 1
-4 7 -11 14 -16 7 -4 17 -24 22 -44 4 -20 4 -35 0 -32 -15 9 -21 -14 -9 -33
17 -27 0 -127 -21 -127 -9 0 -15 10 -16 25 -2 54 -4 61 -15 55 -6 -4 -8 -22
-4 -44 3 -20 2 -57 -3 -84 -8 -40 -7 -49 7 -57 9 -5 11 -10 5 -10 -21 0 -32
24 -39 84 -7 53 -9 58 -21 41 -8 -10 -14 -15 -14 -10 0 4 -2 6 -5 3 -9 -8 16
-139 25 -133 7 5 30 -38 30 -57 0 -6 -9 -8 -21 -5 -17 5 -20 2 -16 -13 4 -16
0 -18 -31 -11 -2 1 6 13 17 27 24 30 27 45 9 42 -7 -2 -14 7 -16 20 -2 12 -8
22 -13 22 -6 0 -9 8 -8 18 3 33 -2 48 -10 28 -4 -11 1 -41 11 -73 20 -58 19
-69 -7 -59 -11 4 -15 16 -13 39 1 18 -4 48 -12 66 -10 24 -10 35 -1 44 12 12
13 69 1 107 -6 19 -8 10 -9 -35 -1 -34 -5 -65 -10 -70 -6 -6 -12 -39 -14 -75
-2 -36 -7 -73 -11 -82 -5 -9 -1 -27 9 -41 32 -49 34 -81 12 -207 -11 -67 -20
-92 -41 -114 -31 -34 -31 -33 -9 44 9 33 20 57 26 53 15 -9 -2 69 -19 87 -12
12 -14 10 -14 -20 -1 -19 -7 -52 -15 -73 -8 -24 -12 -66 -9 -112 3 -65 1 -73
-13 -68 -14 6 -15 0 -10 -46 4 -32 3 -49 -4 -46 -5 4 -7 10 -5 14 3 4 0 13 -5
21 -7 10 -8 -1 -5 -35 4 -45 3 -48 -10 -31 -8 11 -14 30 -14 42 0 12 -7 24
-15 28 -11 4 -15 -2 -15 -24 0 -30 -14 -40 -24 -17 -3 6 -5 3 -5 -8 2 -35 -1
-45 -11 -45 -5 0 -10 7 -10 15 0 8 -4 15 -10 15 -10 0 -14 -25 -11 -66 1 -11
-5 -27 -13 -34 -9 -7 -16 -10 -16 -6 0 3 -9 -3 -20 -14 -22 -22 -26 -45 -10
-55 6 -4 8 -16 4 -27 -3 -11 -1 -23 4 -27 12 -7 17 -101 7 -146 -6 -29 -6 -29
9 -11 15 19 16 19 16 -8 0 -15 -4 -25 -9 -22 -15 10 -20 -20 -10 -60 6 -22 10
-46 10 -54 0 -8 5 -46 11 -83 9 -51 8 -71 0 -79 -7 -7 -12 -23 -12 -37 -1 -23
-2 -24 -11 -8 -6 10 -13 33 -15 50 -2 18 -7 43 -10 57 -3 14 -8 65 -11 115 -4
56 -11 94 -19 103 -8 7 -14 25 -14 40 -1 31 -28 145 -29 121 -3 -53 22 -283
36 -329 8 -30 17 -77 19 -105 2 -47 1 -45 -12 14 -5 22 -6 22 -18 6 -12 -16
-14 -15 -21 16 -8 34 -8 33 -16 -21 -4 -30 -6 -90 -4 -134 2 -44 -1 -89 -5
-100 -7 -15 -9 -7 -9 31 -1 28 -5 63 -11 77 -6 16 -6 96 0 218 5 106 5 211 1
233 -7 41 -11 12 -26 -240 -3 -44 -8 -96 -12 -115 -21 -111 -27 -200 -14 -200
6 0 11 15 11 33 0 17 5 39 10 47 7 11 10 -1 10 -40 -1 -52 -19 -98 -33 -83 -4
3 -7 -1 -7 -11 0 -9 5 -14 10 -11 6 4 10 -12 10 -39 0 -50 -16 -62 -24 -18 -2
15 -3 -10 -1 -56 3 -63 1 -82 -8 -79 -8 3 -12 32 -12 93 0 93 -10 154 -26 154
-5 0 -6 -17 -2 -42 9 -52 9 -86 -2 -205 -6 -76 -5 -99 9 -134 17 -41 16 -42
-5 -65 -18 -19 -21 -31 -16 -70 2 -25 9 -49 14 -53 6 -3 15 -15 21 -27 9 -16
8 -21 -4 -21 -7 0 -14 4 -14 9 0 4 -8 8 -18 8 -15 0 -18 -6 -14 -30 2 -18 0
-30 -7 -30 -20 0 -33 42 -30 103 2 34 1 67 -3 72 -3 6 -9 27 -13 48 -4 21 -9
36 -12 33 -13 -13 -9 -114 9 -204 13 -69 17 -107 10 -114 -6 -6 -12 6 -16 36
-4 26 -18 65 -32 89 -13 23 -24 52 -24 65 0 12 -5 22 -10 22 -13 0 -2 -66 15
-95 7 -11 18 -48 25 -83 13 -61 12 -64 -9 -79 -19 -13 -22 -21 -16 -52 3 -20
7 -66 9 -103 2 -57 0 -66 -12 -56 -9 8 -12 22 -8 40 3 15 2 28 -3 28 -5 0 -13
19 -17 43 -8 41 -8 41 -14 12 -4 -16 -4 -56 -2 -87 3 -38 1 -58 -6 -58 -6 0
-13 4 -17 9 -14 24 -27 127 -29 239 -2 98 0 122 11 118 10 -4 13 9 13 53 0 33
-5 61 -11 63 -18 6 -13 87 7 111 10 12 12 16 4 10 -24 -22 -30 -14 -24 35 4
35 3 43 -5 32 -6 -8 -11 -25 -11 -37 0 -30 -11 -54 -21 -47 -5 3 -9 21 -9 40
0 19 -4 33 -9 30 -14 -9 0 -129 16 -141 8 -6 17 -37 20 -69 5 -53 4 -59 -10
-53 -15 5 -17 -2 -16 -51 0 -31 5 -91 10 -132 19 -152 18 -220 -5 -220 -31 1
-39 20 -46 115 -7 90 -17 126 -27 97 -7 -20 -23 -3 -24 26 0 24 -2 23 -15 -12
-8 -22 -12 -42 -9 -44 3 -3 6 1 6 9 3 27 17 -86 18 -139 1 -33 -3 -51 -9 -47
-5 3 -10 16 -11 28 -1 17 -3 14 -10 -10 -9 -30 -11 -31 -41 -22 -17 4 -42 6
-55 3 -13 -4 -30 -1 -38 6 -8 7 -15 9 -15 4 0 -5 -26 -9 -58 -8 -113 2 -127 3
-115 15 6 6 8 26 6 46 -5 34 21 103 39 103 5 0 8 5 8 10 0 6 9 19 20 30 23 23
29 60 7 41 -31 -25 -23 5 18 73 42 69 94 126 115 126 5 0 10 6 10 14 0 7 7 19
15 26 8 7 15 16 15 21 0 5 -7 9 -15 9 -9 0 -15 10 -15 26 0 14 -4 23 -10 19
-5 -3 -10 -14 -10 -24 0 -10 -6 -31 -14 -46 l-15 -28 -7 38 c-4 21 -3 40 3 44
6 3 13 26 17 51 7 45 40 162 55 190 4 8 4 26 1 40 l-7 25 -12 -28 c-6 -16 -11
-34 -11 -42 0 -25 -12 -45 -27 -45 -10 0 -13 -6 -9 -16 7 -19 -12 -129 -27
-159 -6 -11 -12 -40 -14 -65 -2 -25 -17 -72 -34 -105 -36 -69 -55 -93 -45 -55
15 53 13 81 -6 105 -22 29 -16 67 10 63 14 -3 17 6 18 50 1 33 8 59 18 71 9
10 16 22 16 27 0 5 -7 1 -14 -9 -21 -27 -25 -8 -11 47 7 28 10 56 7 64 -2 8 1
18 9 22 11 7 10 13 -5 29 -18 20 -18 22 -1 58 10 21 23 41 29 45 5 4 10 25 9
48 -2 44 30 114 40 88 10 -25 26 13 20 50 -5 26 -2 38 11 47 13 10 14 18 6 39
-5 14 -7 26 -3 26 4 0 -1 6 -11 13 -18 13 -18 15 -2 39 10 16 13 29 7 32 -6 4
-5 17 2 36 9 23 17 30 39 30 17 0 28 5 28 14 0 17 -27 29 -43 19 -7 -3 -9 -3
-5 2 4 4 3 14 -2 20 -7 8 -4 17 9 29 12 11 17 26 14 39 -4 20 -3 20 10 -3 8
-14 10 -29 5 -34 -10 -13 -11 -46 0 -46 31 0 31 47 1 104 -8 13 -7 16 2 11 9
-6 10 7 6 54 -4 34 -9 66 -12 71 -3 5 0 20 7 35 8 18 14 22 19 13 6 -10 11
-10 20 -1 13 13 3 37 -12 28 -5 -4 -9 0 -9 7 0 11 -2 10 -9 0 -6 -11 -10 -10
-15 3 -8 21 12 48 27 38 6 -4 8 0 4 9 -3 9 1 25 9 37 9 12 14 34 12 49 -2 17
2 26 10 25 15 -4 12 17 -6 35 -11 12 -10 17 5 32 17 16 18 16 25 -2 4 -10 9
-18 11 -18 5 0 8 29 6 60 -3 50 -3 66 3 101 3 20 9 43 13 49 5 9 4 11 -3 6 -7
-4 -12 -2 -12 3 0 6 6 11 13 11 9 0 8 3 -2 9 -16 10 -6 31 15 31 8 0 14 5 14
11 0 25 30 -23 34 -54 3 -28 1 -35 -10 -30 -8 3 -14 19 -14 37 -1 24 -3 27
-10 15 -5 -9 -8 -26 -5 -38 2 -11 -1 -21 -6 -21 -6 0 -4 -7 5 -15 17 -17 22
-140 5 -130 -5 4 -9 -2 -9 -12 1 -37 38 26 51 85 7 31 18 66 25 76 8 11 11 30
8 43 -4 15 0 31 10 42 11 12 13 21 7 25 -5 4 -15 -2 -21 -11 -10 -16 -11 -16
-5 2 4 11 8 25 8 32 0 7 4 10 8 8 8 -6 22 25 14 33 -3 3 -5 -1 -5 -9 0 -11 -2
-11 -8 -1 -11 17 -2 73 10 66 11 -7 -19 68 -31 76 -4 3 0 14 10 24 17 17 19
18 19 3 0 -9 5 -16 12 -14 7 1 12 -4 13 -12 0 -22 25 -25 25 -3 0 10 7 34 16
52 14 27 15 37 5 53 -7 10 -8 16 -2 13 5 -4 12 3 16 14 12 38 31 23 27 -22 -5
-52 8 -44 18 11 5 29 3 46 -7 61 -8 11 -11 20 -6 19 18 -3 33 2 33 11 0 6 -3
9 -7 8 -12 -4 -15 10 -8 42 4 17 11 30 15 30 11 0 1 32 -14 43 -7 6 -6 7 4 5
15 -5 77 49 73 63 -2 4 6 6 17 4 12 -2 17 1 14 9 -8 20 43 55 71 50 14 -2 25
0 25 6 0 5 15 10 33 10 18 0 37 4 43 10 5 5 47 11 94 14 149 8 201 15 216 27
11 9 18 8 34 -6 19 -17 19 -17 15 4 -2 11 0 23 5 26 9 6 50 -46 50 -63 0 -6 4
-13 8 -16 4 -2 8 19 7 47 0 43 3 52 17 49 9 -1 19 2 22 7 8 12 47 2 51 -13z
m100 -87 c-7 -20 -8 -21 -17 -5 -5 9 -7 24 -4 33 10 26 29 -1 21 -28z m-75
-276 c0 -22 -2 -25 -10 -13 -13 20 -13 40 0 40 6 0 10 -12 10 -27z m-922 -133
c1 -16 -2 -30 -7 -30 -10 0 -21 47 -13 55 12 11 18 4 20 -25z m847 -98 c-9
-23 -24 3 -17 30 4 18 6 19 14 4 5 -10 7 -25 3 -34z m-911 -4 c7 -12 7 -24 -1
-40 -7 -13 -15 -38 -18 -55 -6 -29 -25 -47 -25 -24 0 5 -3 18 -6 28 -4 13 -3
14 4 5 7 -11 10 -10 16 3 3 9 3 22 -1 28 -5 9 -8 49 -4 73 2 10 24 -2 35 -18z
m893 -110 c-3 -7 -5 -2 -5 12 0 14 2 19 5 13 2 -7 2 -19 0 -25z m-75 -150 c-7
-7 -12 -20 -12 -30 0 -10 -9 -32 -20 -50 l-21 -33 3 30 c2 19 8 29 17 27 9 -2
11 3 7 14 -6 15 18 54 33 54 3 0 0 -5 -7 -12z m-26 -173 c16 -23 18 -55 4 -55
-10 0 -11 4 -14 39 0 11 -4 23 -8 27 -5 4 -7 17 -7 28 1 20 1 20 6 1 3 -11 12
-29 19 -40z m-916 35 c0 -5 -2 -10 -4 -10 -3 0 -8 5 -11 10 -3 6 -1 10 4 10 6
0 11 -4 11 -10z m751 -382 c6 -11 6 -18 0 -18 -5 0 -16 14 -25 31 -14 28 -14
30 0 18 8 -7 20 -21 25 -31z m-11 -75 c0 -5 -5 -15 -10 -23 -8 -12 -10 -11
-10 8 0 12 5 22 10 22 6 0 10 -3 10 -7z m-62 -104 c-3 -8 -7 -3 -11 10 -4 17
-3 21 5 13 5 -5 8 -16 6 -23z m39 -151 c-3 -8 -6 -5 -6 6 -1 11 2 17 5 13 3
-3 4 -12 1 -19z m13 -34 c0 -8 -4 -12 -10 -9 -5 3 -10 10 -10 16 0 5 5 9 10 9
6 0 10 -7 10 -16z m-870 -81 c0 -7 -5 -13 -11 -13 -5 0 -7 6 -3 13 4 6 -4 2
-18 -11 -18 -16 -25 -18 -25 -8 0 8 4 13 8 10 11 -6 22 33 13 48 -4 7 2 4 14
-6 12 -11 22 -25 22 -33z m745 -32 c-3 -12 -11 -19 -16 -16 -5 4 -5 13 1 24 5
10 8 21 6 23 -1 3 1 2 7 -2 5 -5 6 -18 2 -29z m25 -101 c0 -5 -2 -10 -4 -10
-3 0 -8 5 -11 10 -3 6 -1 10 4 10 6 0 11 -4 11 -10z m-105 -93 c5 -1 11 -20
13 -42 4 -46 -6 -41 -25 13 -13 39 -18 82 -4 49 4 -10 11 -19 16 -20z m52 -19
c-3 -8 -6 -5 -6 6 -1 11 2 17 5 13 3 -3 4 -12 1 -19z m-127 -239 c0 -15 4 -39
10 -53 15 -42 -7 -31 -30 14 -20 40 -25 71 -13 83 12 12 33 -15 33 -44z m-40
-167 c0 -21 -2 -24 -10 -12 -13 20 -13 53 0 45 6 -3 10 -18 10 -33z m-713
-124 c-3 -8 -6 -5 -6 6 -1 11 2 17 5 13 3 -3 4 -12 1 -19z m716 -50 c-3 -18
-11 -39 -17 -47 -8 -11 -8 -13 0 -8 16 9 22 -11 17 -51 -7 -41 -23 -52 -23
-15 0 15 -3 46 -6 68 -4 30 -3 36 5 25 9 -13 11 -13 11 2 0 9 -5 20 -10 23 -6
4 -8 11 -4 16 3 5 10 7 15 4 5 -4 9 -1 9 4 0 6 2 11 5 11 2 0 2 -15 -2 -32z
m-364 -275 c-1 -57 -1 -58 -14 -28 -15 33 -19 68 -8 78 16 17 23 3 22 -50z
m251 -26 c0 -10 -4 -15 -10 -12 -5 3 -10 18 -10 33 0 21 2 24 10 12 5 -8 10
-23 10 -33z"/>
<path d="M10700 2890 c0 -46 10 -81 21 -74 10 6 2 69 -12 94 -6 10 -8 4 -9
-20z"/>
<path d="M10451 2684 c0 -11 3 -14 6 -6 3 7 2 16 -1 19 -3 4 -6 -2 -5 -13z"/>
<path d="M10023 2605 c0 -22 2 -30 4 -17 2 12 2 30 0 40 -3 9 -5 -1 -4 -23z"/>
<path d="M10433 2580 c0 -30 2 -43 4 -27 2 15 2 39 0 55 -2 15 -4 2 -4 -28z"/>
<path d="M10402 2495 c0 -16 2 -22 5 -12 2 9 2 23 0 30 -3 6 -5 -1 -5 -18z"/>
<path d="M9953 2445 c0 -22 2 -30 4 -17 2 12 2 30 0 40 -3 9 -5 -1 -4 -23z"/>
<path d="M9880 2453 c5 -2 7 -9 4 -15 -10 -15 6 -99 17 -92 6 3 7 19 3 37 -4
18 -8 41 -9 51 -1 11 -7 21 -14 22 -6 1 -7 0 -1 -3z"/>
<path d="M10425 2433 c13 -53 18 -193 6 -193 -6 0 -11 -8 -11 -18 0 -10 -5
-23 -11 -29 -6 -6 -9 -17 -6 -25 4 -9 8 -6 12 9 8 27 25 21 25 -8 0 -11 4 -18
9 -14 5 3 12 1 15 -4 4 -5 2 -12 -4 -16 -5 -3 -10 -16 -10 -29 0 -12 -5 -27
-12 -34 -9 -9 -9 -12 0 -12 7 0 12 5 12 11 0 6 6 9 14 6 19 -8 28 3 15 19 -12
15 5 29 26 20 8 -3 15 -3 15 -1 0 9 -37 65 -41 62 -3 -1 6 8 19 21 22 21 23
26 11 50 l-13 27 -3 -30 c-6 -48 -12 -60 -25 -47 -7 7 -10 38 -9 74 4 100 -9
188 -26 188 -12 0 -14 -7 -8 -27z"/>
<path d="M10311 2384 c0 -11 3 -14 6 -6 3 7 2 16 -1 19 -3 4 -6 -2 -5 -13z"/>
<path d="M9951 2374 c0 -11 3 -14 6 -6 3 7 2 16 -1 19 -3 4 -6 -2 -5 -13z"/>
<path d="M10377 2323 c-4 -34 -9 -81 -12 -105 -4 -30 -3 -37 4 -23 4 11 7 23
4 28 -2 4 0 7 5 7 14 0 23 90 14 125 -8 27 -9 23 -15 -32z"/>
<path d="M10346 2343 c-3 -16 -2 -44 3 -63 8 -32 9 -29 10 28 1 66 -4 79 -13
35z"/>
<path d="M10108 2269 c-1 -35 -1 -91 2 -124 5 -58 5 -59 12 -20 6 41 2 194 -6
202 -2 3 -6 -24 -8 -58z"/>
<path d="M10322 2245 c0 -16 2 -22 5 -12 2 9 2 23 0 30 -3 6 -5 -1 -5 -18z"/>
<path d="M10180 2237 c0 -1 -9 -27 -21 -57 -15 -41 -21 -84 -24 -166 -1 -62
-8 -120 -14 -130 -9 -16 -11 -14 -11 16 -1 24 -9 4 -27 -68 -14 -57 -22 -106
-18 -110 9 -9 21 13 41 77 9 31 23 61 30 66 8 6 17 37 20 70 4 33 14 66 21 74
17 16 13 57 -5 54 -11 -3 -11 16 1 47 6 17 15 130 10 130 -2 0 -3 -1 -3 -3z"/>
<path d="M10256 2205 c-3 -9 -6 -32 -6 -50 0 -18 -9 -52 -20 -76 -20 -46 -26
-94 -11 -103 11 -7 27 51 42 152 11 79 9 112 -5 77z"/>
<path d="M10303 2180 c-11 -39 -6 -62 9 -36 5 9 8 29 6 44 -4 26 -4 26 -15 -8z"/>
<path d="M9956 2148 c-11 -36 -13 -65 -6 -83 7 -16 8 -13 8 15 -1 19 2 45 6
58 4 12 5 22 1 22 -3 0 -7 -6 -9 -12z"/>
<path d="M10370 2118 c0 -26 5 -50 10 -53 13 -8 13 65 0 85 -7 11 -10 2 -10
-32z"/>
<path d="M10282 2066 c1 -19 6 -32 10 -30 12 7 10 52 -2 59 -7 4 -10 -6 -8
-29z"/>
<path d="M9880 2046 c0 -11 -8 -25 -17 -32 -17 -12 -16 -13 5 -11 25 1 40 33
23 50 -8 8 -11 6 -11 -7z"/>
<path d="M10057 2053 c-4 -3 -7 -14 -7 -23 0 -9 -11 -43 -24 -76 -29 -70 -46
-186 -25 -167 7 7 14 34 17 60 2 27 12 62 22 79 10 17 21 54 25 83 7 50 5 58
-8 44z"/>
<path d="M10108 2040 c-4 -14 -7 -43 -7 -65 l1 -40 9 34 c6 18 9 47 7 65 -3
30 -3 30 -10 6z"/>
<path d="M10341 2014 c0 -11 3 -14 6 -6 3 7 2 16 -1 19 -3 4 -6 -2 -5 -13z"/>
<path d="M9777 1980 c-3 -14 -8 -49 -11 -78 -3 -29 -9 -58 -13 -65 -11 -18
-12 -37 -2 -37 28 0 55 122 39 179 l-7 26 -6 -25z"/>
<path d="M9940 1938 c-20 -59 -22 -105 -4 -112 11 -4 15 -2 11 8 -3 8 -2 29 3
48 18 72 20 88 11 88 -5 0 -14 -15 -21 -32z"/>
<path d="M10311 1950 c0 -14 4 -34 9 -45 8 -18 9 -18 9 5 0 14 -4 34 -9 45 -8
18 -9 18 -9 -5z"/>
<path d="M10235 1947 c-4 -10 -5 -21 -1 -24 10 -10 18 4 13 24 -4 17 -4 17
-12 0z"/>
<path d="M9696 1898 c-8 -31 -8 -43 1 -34 8 8 16 56 10 56 -3 0 -7 -10 -11
-22z"/>
<path d="M9887 1857 c-11 -29 -9 -53 4 -40 6 6 9 21 7 34 -3 21 -4 22 -11 6z"/>
<path d="M10197 1844 c-9 -9 -9 -66 -1 -88 11 -29 24 -17 23 22 -1 43 -12 76
-22 66z"/>
<path d="M10155 1783 c-4 -18 -14 -38 -21 -44 -8 -6 -14 -17 -14 -23 0 -7 -10
-30 -21 -51 -26 -48 -33 -165 -10 -165 9 0 11 7 8 21 -8 31 3 85 14 67 9 -14
4 -133 -6 -159 -10 -27 -1 -122 12 -126 13 -5 13 -9 14 210 0 116 3 134 25
182 21 44 24 58 16 86 l-10 34 -7 -32z"/>
<path d="M9861 1790 c-2 -3 -5 -45 -7 -95 -2 -49 -9 -118 -15 -153 -11 -62 -8
-85 10 -66 13 13 41 228 31 234 -5 3 -10 23 -13 45 -2 22 -5 38 -6 35z"/>
<path d="M10010 1787 c0 -2 -9 -39 -21 -83 -40 -151 -48 -186 -42 -201 4 -9
18 16 38 65 35 85 57 222 36 222 -6 0 -11 -2 -11 -3z"/>
<path d="M9710 1765 c-11 -13 -10 -18 4 -33 9 -10 16 -24 16 -30 0 -7 4 -12
10 -12 10 0 3 27 -12 47 -5 6 -5 12 1 15 6 1 7 9 2 16 -6 10 -10 10 -21 -3z"/>
<path d="M9750 1741 c0 -12 5 -21 10 -21 6 0 10 6 10 14 0 8 -4 18 -10 21 -5
3 -10 -3 -10 -14z"/>
<path d="M10072 1670 c0 -14 2 -19 5 -12 2 6 2 18 0 25 -3 6 -5 1 -5 -13z"/>
<path d="M9750 1637 c4 -41 5 -41 8 -8 2 18 0 37 -5 42 -5 5 -6 -11 -3 -34z"/>
<path d="M9712 1630 c-1 -22 2 -40 6 -40 5 0 9 18 10 40 1 22 -2 40 -6 40 -5
0 -9 -18 -10 -40z"/>
<path d="M9731 1540 c0 -33 1 -34 11 -12 8 17 8 26 0 34 -9 9 -12 4 -11 -22z"/>
<path d="M10051 1554 c0 -11 3 -14 6 -6 3 7 2 16 -1 19 -3 4 -6 -2 -5 -13z"/>
<path d="M10050 1476 c0 -9 5 -16 10 -16 6 0 10 4 10 9 0 6 -4 13 -10 16 -5 3
-10 -1 -10 -9z"/>
<path d="M9776 1454 c-3 -9 -6 -23 -6 -32 1 -15 3 -14 15 2 17 22 20 46 6 46
-5 0 -12 -7 -15 -16z"/>
<path d="M9947 1454 c-4 -4 -7 -14 -7 -23 0 -11 3 -12 11 -4 6 6 10 16 7 23
-2 6 -7 8 -11 4z"/>
<path d="M9854 1415 c-4 -16 -1 -47 8 -74 l15 -46 -1 67 c-2 74 -11 96 -22 53z"/>
<path d="M10035 1414 c-4 -16 -10 -40 -15 -54 -23 -67 -32 -281 -12 -287 7 -3
12 4 12 15 0 11 7 25 15 32 10 9 15 30 14 69 -1 31 -4 45 -6 31 -3 -14 -9 -29
-14 -35 -13 -13 -11 54 5 160 13 87 14 128 1 69z"/>
<path d="M9817 1423 c-4 -3 -7 -13 -7 -22 1 -13 3 -13 11 2 11 19 8 33 -4 20z"/>
<path d="M9580 1356 c0 -19 5 -38 10 -41 6 -4 10 10 10 34 0 23 -4 41 -10 41
-5 0 -10 -15 -10 -34z"/>
<path d="M9752 1378 c-14 -14 -16 -28 -3 -28 9 0 24 30 18 36 -2 2 -9 -2 -15
-8z"/>
<path d="M9715 1320 c-3 -5 -1 -10 4 -10 6 0 11 5 11 10 0 6 -2 10 -4 10 -3 0
-8 -4 -11 -10z"/>
<path d="M9565 1290 c3 -5 8 -10 11 -10 2 0 4 5 4 10 0 6 -5 10 -11 10 -5 0
-7 -4 -4 -10z"/>
<path d="M10120 1251 c0 -18 4 -30 9 -26 6 3 8 15 6 27 -7 34 -15 34 -15 -1z"/>
<path d="M9793 1254 c-15 -15 -17 -44 -4 -44 8 0 25 49 19 55 -2 2 -9 -3 -15
-11z"/>
<path d="M9877 1253 c-5 -7 -10 -46 -12 -85 -2 -40 -2 -62 1 -48 2 14 9 41 15
61 12 39 9 92 -4 72z"/>
<path d="M9617 1165 c-8 -8 -18 -11 -22 -7 -4 4 -6 -7 -3 -24 2 -17 -2 -36 -9
-43 -19 -17 -17 -81 2 -81 8 0 15 6 15 13 0 6 6 24 14 39 10 20 11 29 2 38 -8
8 -7 9 7 4 16 -6 18 -1 16 35 -2 22 -4 41 -5 41 -2 0 -9 -7 -17 -15z m-14
-105 c-3 -12 -8 -19 -11 -16 -5 6 5 36 12 36 2 0 2 -9 -1 -20z"/>
<path d="M9755 1150 c-4 -12 -5 -24 -2 -27 3 -2 8 5 12 17 4 12 5 24 2 27 -3
2 -8 -5 -12 -17z"/>
<path d="M9810 1134 c0 -8 5 -12 10 -9 6 3 10 10 10 16 0 5 -4 9 -10 9 -5 0
-10 -7 -10 -16z"/>
<path d="M9667 1088 c-16 -44 -20 -168 -6 -168 13 0 23 50 12 61 -7 7 -6 33 4
76 16 78 12 90 -10 31z"/>
<path d="M9942 1050 c0 -14 2 -19 5 -12 2 6 2 18 0 25 -3 6 -5 1 -5 -13z"/>
<path d="M9868 1007 c-12 -29 -10 -73 3 -60 6 6 9 26 7 44 -2 26 -5 30 -10 16z"/>
<path d="M9612 978 c-15 -15 -15 -38 -1 -58 8 -12 10 -12 8 5 -1 11 1 28 6 38
9 22 2 30 -13 15z"/>
<path d="M9950 970 c0 -5 5 -10 10 -10 6 0 10 5 10 10 0 6 -4 10 -10 10 -5 0
-10 -4 -10 -10z"/>
<path d="M9923 885 c0 -22 2 -30 4 -17 2 12 2 30 0 40 -3 9 -5 -1 -4 -23z"/>
<path d="M9531 864 c0 -11 3 -14 6 -6 3 7 2 16 -1 19 -3 4 -6 -2 -5 -13z"/>
<path d="M10001 864 c0 -11 3 -14 6 -6 3 7 2 16 -1 19 -3 4 -6 -2 -5 -13z"/>
<path d="M9798 844 c-5 -4 -8 -16 -8 -28 0 -14 3 -17 11 -9 6 6 9 19 7 28 -1
9 -6 13 -10 9z"/>
<path d="M9701 772 c-7 -13 -11 -28 -8 -35 2 -7 9 -2 16 11 7 13 11 28 8 35
-2 7 -9 2 -16 -11z"/>
<path d="M9646 763 c-6 -14 -5 -15 5 -6 7 7 10 15 7 18 -3 3 -9 -2 -12 -12z"/>
<path d="M9668 683 c-16 -35 -15 -64 2 -46 9 8 25 83 19 83 -2 -1 -12 -17 -21
-37z"/>
<path d="M9912 600 c0 -14 2 -19 5 -12 2 6 2 18 0 25 -3 6 -5 1 -5 -13z"/>
<path d="M9742 548 c-14 -14 -16 -40 -3 -53 5 -6 11 -26 14 -45 2 -19 5 -2 5
38 1 39 1 72 -1 72 -2 0 -8 -5 -15 -12z"/>
<path d="M9782 530 c0 -14 2 -19 5 -12 2 6 2 18 0 25 -3 6 -5 1 -5 -13z"/>
<path d="M9407 525 c-4 -8 -3 -16 1 -19 13 -8 35 11 28 23 -10 15 -23 14 -29
-4z"/>
<path d="M9706 441 c-4 -7 -5 -15 -2 -18 9 -9 19 4 14 18 -4 11 -6 11 -12 0z"/>
<path d="M9901 404 c0 -11 3 -14 6 -6 3 7 2 16 -1 19 -3 4 -6 -2 -5 -13z"/>
<path d="M9537 263 c-4 -3 -7 -11 -7 -17 0 -6 5 -5 12 2 6 6 9 14 7 17 -3 3
-9 2 -12 -2z"/>
<path d="M9506 215 c-3 -8 -1 -15 4 -15 6 0 10 7 10 15 0 8 -2 15 -4 15 -2 0
-6 -7 -10 -15z"/>
<path d="M9486 153 c-2 -10 -8 -29 -11 -43 -5 -17 -4 -22 3 -15 11 11 27 75
18 75 -2 0 -7 -8 -10 -17z"/>
<path d="M333 3305 c0 -27 2 -38 4 -22 2 15 2 37 0 50 -2 12 -4 0 -4 -28z"/>
<path d="M5382 3267 c-27 -15 -42 -39 -42 -68 0 -39 14 -43 48 -14 16 14 35
25 41 25 22 0 10 -21 -22 -40 -59 -35 -76 -109 -34 -148 26 -24 52 -27 93 -11
21 7 34 7 51 -2 41 -22 49 1 25 66 -12 31 -20 61 -17 66 10 16 -16 91 -40 115
-25 25 -67 29 -103 11z m86 -173 c-4 -25 -48 -32 -48 -8 0 21 32 46 43 34 5
-4 7 -16 5 -26z"/>
<path d="M316 3177 c-5 -37 -6 -70 -3 -73 8 -8 19 77 15 112 -3 19 -7 6 -12
-39z"/>
<path d="M5164 3170 c-23 -34 -27 -51 -26 -105 1 -75 20 -111 61 -120 45 -10
79 4 102 41 22 36 19 51 -15 64 -20 8 -20 8 8 19 27 11 28 14 22 52 -11 67
-31 89 -82 89 -40 0 -46 -3 -70 -40z m86 -44 c0 -7 -10 -16 -22 -19 -27 -7
-32 -3 -25 18 8 19 47 20 47 1z m-1 -102 c-9 -9 -23 -12 -33 -8 -16 6 -14 9
10 19 35 14 43 10 23 -11z"/>
<path d="M5036 3155 c-16 -9 -37 -13 -48 -10 -12 4 -20 0 -24 -10 -8 -19 10
-132 32 -212 13 -46 18 -53 39 -53 29 0 30 6 14 100 -13 83 -7 106 31 113 25
5 30 11 30 35 0 29 -16 52 -34 52 -6 0 -24 -7 -40 -15z"/>
<path d="M4843 3090 c-40 -24 -58 -82 -49 -158 7 -63 21 -88 58 -103 37 -15
78 2 101 40 18 31 23 76 9 85 -14 8 -52 -5 -52 -19 0 -7 -7 -18 -15 -25 -20
-17 -34 -4 -44 42 -12 52 21 103 44 71 18 -25 45 -9 45 26 0 20 -8 35 -22 45
-29 20 -36 20 -75 -4z"/>
<path d="M9347 2959 c4 -13 8 -18 11 -10 2 7 -1 18 -6 23 -8 8 -9 4 -5 -13z"/>
<path d="M262 2765 c0 -16 2 -22 5 -12 2 9 2 23 0 30 -3 6 -5 -1 -5 -18z"/>
<path d="M3238 2314 c5 -75 7 -81 65 -166 61 -91 84 -110 49 -41 -11 21 -34
81 -52 133 -17 52 -40 108 -49 123 -18 29 -18 29 -13 -49z"/>
<path d="M9450 2318 c0 -4 4 -8 9 -8 6 0 12 4 15 8 3 5 -1 9 -9 9 -8 0 -15 -4
-15 -9z"/>
<path d="M173 1875 c0 -22 2 -30 4 -17 2 12 2 30 0 40 -3 9 -5 -1 -4 -23z"/>
<path d="M3460 1833 c0 -17 29 -138 51 -213 21 -72 29 -138 28 -240 -2 -75 3
-117 14 -145 62 -159 70 -186 59 -209 -8 -18 -21 -25 -59 -29 -93 -11 -300
-47 -443 -76 -410 -85 -450 -91 -850 -137 -168 -19 -448 -19 -667 -1 -116 10
-143 10 -143 0 0 -7 4 -13 9 -13 6 0 10 -33 10 -73 0 -117 35 -253 116 -452
51 -124 83 -185 113 -217 l26 -28 2530 0 c1391 0 2526 3 2522 7 -4 4 -384 8
-844 9 -460 1 -880 5 -932 8 -170 11 -315 14 -325 7 -10 -7 -107 -5 -175 2
-19 2 -39 2 -45 -2 -30 -17 -60 -10 -92 21 -39 37 -98 138 -119 201 -8 23 -17
49 -20 58 -3 9 -13 15 -22 13 -10 -3 -32 5 -51 16 l-34 21 7 71 c3 38 11 79
17 89 7 15 5 42 -11 107 -23 90 -33 112 -44 93 -4 -6 -16 -11 -27 -11 -10 0
-19 -4 -19 -10 0 -5 -6 -10 -13 -10 -7 0 -29 -16 -50 -36 -36 -35 -38 -36 -62
-20 -28 19 -61 52 -83 84 -13 20 -13 25 -1 37 19 18 69 22 97 7 14 -8 22 -9
22 -2 0 26 -33 58 -143 141 -101 77 -121 97 -146 147 -41 82 -79 208 -91 306
-17 140 -37 256 -60 346 -12 47 -24 97 -27 113 -6 32 -23 47 -23 20z m-196
-964 c14 12 16 11 16 -7 0 -13 10 -24 30 -31 17 -5 34 -20 40 -33 l9 -23 0 23
c1 12 -6 25 -14 28 -19 8 -20 34 -1 34 23 0 46 -11 41 -20 -3 -5 4 -6 14 -3
15 4 20 0 18 -16 -1 -13 -8 -21 -20 -21 -10 0 -16 -4 -13 -9 3 -5 -1 -11 -9
-15 -21 -8 -19 -20 10 -47 24 -23 32 -60 19 -92 -5 -13 -8 -13 -25 4 -10 10
-19 25 -19 32 0 35 -73 137 -88 122 -3 -3 -2 -9 3 -13 12 -9 59 -93 99 -181
15 -31 15 -36 1 -50 -11 -12 -15 -12 -15 -2 0 17 -29 78 -57 120 -13 19 -23
42 -23 52 0 11 -4 19 -10 19 -5 0 -10 -9 -10 -20 0 -11 5 -20 10 -20 6 0 10
-7 10 -16 0 -8 11 -30 25 -48 14 -18 25 -40 25 -49 0 -9 5 -19 10 -22 6 -3 10
-21 10 -38 -1 -32 -1 -31 -26 17 -13 26 -31 58 -39 69 -22 32 -19 0 4 -46 10
-20 22 -54 25 -74 l7 -38 -18 30 c-10 17 -33 60 -51 97 -33 68 -52 91 -52 64
0 -21 59 -146 69 -146 5 0 11 -15 15 -32 9 -53 12 -137 5 -132 -4 2 -10 -4
-12 -13 -4 -15 -5 -15 -6 3 0 11 -6 25 -12 31 -13 13 -53 125 -63 175 -4 18
-18 47 -32 63 l-25 30 6 -41 c4 -23 2 -45 -3 -48 -10 -6 -22 38 -22 80 0 13
-5 24 -11 24 -6 0 -8 -7 -5 -16 3 -8 1 -24 -5 -35 -7 -15 -7 -24 1 -33 11 -15
31 -146 23 -159 -3 -4 0 -14 6 -20 5 -7 9 -23 8 -34 -2 -38 -25 -6 -32 45 -11
84 -16 102 -27 96 -6 -4 -8 -27 -5 -58 l6 -51 -17 33 c-18 36 -28 40 -35 15
-3 -10 -3 0 0 22 4 34 -1 48 -34 97 -37 56 -38 57 -44 30 -5 -26 -6 -25 -28
21 -26 53 -35 60 -27 20 3 -16 7 -46 8 -68 1 -22 6 -45 11 -52 9 -13 2 -33
-14 -33 -5 0 -9 8 -9 19 0 16 -31 35 -52 32 -4 0 -25 34 -45 77 -30 62 -37 89
-38 137 0 33 4 60 10 60 6 1 19 6 30 12 11 6 43 12 70 14 28 1 55 5 60 9 34
24 100 16 132 -16 12 -12 18 -12 23 -3 10 16 30 2 30 -21 0 -10 4 -22 10 -25
11 -7 3 49 -11 77 -18 34 -11 40 33 33 24 -4 48 -15 55 -24 11 -14 12 -14 13
6 0 23 21 36 32 20 4 -7 12 -6 22 2z m218 -49 c16 -17 26 -35 23 -39 -2 -5 2
-11 10 -15 8 -3 15 -17 15 -31 0 -31 -15 -34 -17 -3 -1 12 -13 32 -28 45 -14
13 -25 30 -25 38 0 8 -7 15 -16 15 -8 0 -12 5 -9 10 9 15 15 13 47 -20z m-19
-65 c12 -22 25 -41 30 -43 4 -2 7 -10 7 -18 0 -8 7 -28 15 -43 12 -24 12 -31
1 -40 -10 -9 -17 -2 -31 29 -10 22 -22 40 -26 40 -5 0 -6 6 -4 13 3 6 -6 25
-20 41 -25 29 -31 47 -18 60 12 12 24 2 46 -39z m-739 -38 c4 5 4 -5 0 -21 -4
-19 -3 -27 4 -22 6 4 12 -12 15 -42 3 -26 9 -61 12 -77 5 -24 2 -35 -14 -49
-24 -22 -23 -26 -26 78 -1 32 -7 61 -12 65 -6 3 -14 26 -18 51 -7 44 -7 45 12
27 11 -9 23 -14 27 -10z m-39 -112 c5 -76 -13 -114 -37 -80 -4 6 -8 53 -7 105
l0 95 20 -40 c12 -22 22 -58 24 -80z m795 -69 c0 -6 -7 2 -15 18 -8 15 -15 36
-15 45 1 17 30 -44 30 -63z m68 50 c2 -10 -2 -23 -9 -30 -9 -8 -10 -8 -5 2 4
6 2 12 -3 12 -6 0 -11 9 -11 21 0 25 23 20 28 -5z m-122 -32 c-3 -8 3 -31 14
-52 23 -42 25 -62 8 -62 -7 0 -6 -6 4 -17 17 -21 51 -80 62 -107 7 -19 6 -19
-14 -1 -11 10 -20 24 -20 31 0 19 -24 23 -37 5 -18 -24 -16 -38 3 -15 8 10 13
13 9 6 -4 -7 3 -28 15 -47 12 -20 24 -50 26 -68 l3 -32 -11 30 -11 30 -14 -30
c-12 -28 -13 -28 -11 -5 2 16 -5 31 -18 42 -19 16 -21 27 -20 97 2 73 1 80
-18 85 -21 6 -21 7 3 26 27 23 20 41 -8 23 -17 -11 -18 -9 -11 20 5 18 14 44
21 59 11 22 16 24 22 12 5 -8 6 -22 3 -30z m-236 -63 c-1 -25 -1 -25 -15 8
-19 42 -19 47 0 31 8 -7 15 -24 15 -39z m574 13 c3 -8 2 -12 -4 -9 -6 3 -10
10 -10 16 0 14 7 11 14 -7z m-604 -62 c0 -7 -4 -10 -10 -7 -5 3 -10 16 -10 28
0 18 2 19 10 7 5 -8 10 -21 10 -28z m-200 -12 c0 -5 -2 -10 -4 -10 -3 0 -8 5
-11 10 -3 6 -1 10 4 10 6 0 11 -4 11 -10z m227 -22 c-3 -8 -6 -5 -6 6 -1 11 2
17 5 13 3 -3 4 -12 1 -19z m363 -34 c0 -8 9 -34 20 -56 22 -46 26 -68 10 -52
-10 10 -50 111 -50 127 0 4 5 5 10 2 6 -3 10 -13 10 -21z m-350 -26 c-1 -28
-2 -30 -11 -15 -6 10 -8 25 -5 33 9 24 16 16 16 -18z m9 -142 c1 -57 -6 -41
-12 29 -4 39 -3 51 2 35 5 -14 9 -43 10 -64z m318 62 c-3 -8 -6 -5 -6 6 -1 11
2 17 5 13 3 -3 4 -12 1 -19z m188 -25 c4 -16 11 -36 16 -46 6 -11 8 -21 6 -23
-7 -7 -47 61 -47 80 0 27 19 18 25 -11z m-278 -25 c-3 -8 -6 -5 -6 6 -1 11 2
17 5 13 3 -3 4 -12 1 -19z m210 -40 c-2 -7 7 -32 20 -55 13 -24 19 -43 13 -43
-5 0 -10 6 -10 14 0 7 -11 25 -25 41 -20 21 -23 30 -14 41 14 17 22 18 16 2z
m-173 -54 c10 -25 -1 -29 -14 -5 -6 12 -7 21 -1 21 5 0 12 -7 15 -16z"/>
<path d="M3246 842 c-3 -5 1 -15 9 -22 16 -14 20 -3 6 19 -5 8 -11 9 -15 3z"/>
<path d="M3170 724 c0 -8 5 -12 10 -9 6 4 8 11 5 16 -9 14 -15 11 -15 -7z"/>
<path d="M3100 696 c0 -9 5 -16 10 -16 6 0 10 4 10 9 0 6 -4 13 -10 16 -5 3
-10 -1 -10 -9z"/>
<path d="M3180 691 c0 -6 5 -13 10 -16 6 -3 10 1 10 9 0 9 -4 16 -10 16 -5 0
-10 -4 -10 -9z"/>
<path d="M2871 664 c0 -11 3 -14 6 -6 3 7 2 16 -1 19 -3 4 -6 -2 -5 -13z"/>
<path d="M2866 553 c2 -38 4 -41 13 -18 9 21 4 45 -8 45 -4 0 -6 -12 -5 -27z"/>
<path d="M9319 1738 c-5 -19 -8 -50 -4 -46 7 7 15 48 9 48 -2 0 -4 -1 -5 -2z"/>
<path d="M107 939 c7 -7 15 -10 18 -7 3 3 -2 9 -12 12 -14 6 -15 5 -6 -5z"/>
</g>
</svg>
